<svg xmlns="http://www.w3.org/2000/svg" viewBox="0 0 599.7 426.28"><circle cx="358.05" cy="252.29" r="149.72" fill="#abd066"/><path d="M476.88 343.38a149.72 149.72 0 01-268.57-91 152 152 0 01.81-15.68 162.52 162.52 0 01267.76 106.68z" fill="#9fc05f" fill-rule="evenodd"/><path d="M358 102.61a150.84 150.84 0 0116.32.89c70.81 27.08 115.9 111.55 101.39 192.24-14.51-86.82-97.81-168.1-178.8-180.13a149.05 149.05 0 0161.09-13z" fill="#c7de7f" fill-rule="evenodd"/><path d="M382.87 80.22a17.84 17.84 0 0116 9.89A23.18 23.18 0 00412.34 102a19.14 19.14 0 019.65 7.6 23.2 23.2 0 0015.58 10.51 19.79 19.79 0 0116 19 23.14 23.14 0 005.73 15.08 13.52 13.52 0 011.5 2.17 23 23 0 009.95 9.72 15.55 15.55 0 018.38 13.8 15 15 0 01-.18 2.32 23.11 23.11 0 002.62 15.13 16.24 16.24 0 012 7.92 12 12 0 01-.07 1.59 22.9 22.9 0 002.57 13.32 12.33 12.33 0 011 8.42 23.07 23.07 0 00.76 13.41 11 11 0 01.62 3.63 11.66 11.66 0 01-.06 1.18 22.94 22.94 0 001.72 11.83A9.22 9.22 0 11472.5 263a22.84 22.84 0 00-3.95-11.3 10.93 10.93 0 01-1.82-6v-1a23 23 0 00-2.53-13.19 12 12 0 01-.93-2.39 23 23 0 00-7.1-11.56 16.45 16.45 0 01-5.07-15.69 23.1 23.1 0 00-1.73-15.28 17.06 17.06 0 01-.86-2.29 23 23 0 00-7.57-11.68 13 13 0 01-3.12-3.88A23.07 23.07 0 00426 157.77a19.83 19.83 0 01-9.27-8.11 23.19 23.19 0 00-15.11-11.08 19 19 0 01-13.21-11.25 23.17 23.17 0 00-12.63-12.84c-.26-.11-.52-.23-.77-.36a16 16 0 11-18.21-22.56 35.81 35.81 0 0014.86-7.32 17.76 17.76 0 0111.21-4.03z" fill="#c7de7f" fill-rule="evenodd"/><path d="M330.16 109.64a17.56 17.56 0 0112.3 5A37.57 37.57 0 00361.69 125a18.56 18.56 0 016 2.42 37.71 37.71 0 0021.66 6h.54a24.49 24.49 0 0123.35 17.12 37.75 37.75 0 0015.28 20.63 20.61 20.61 0 018 10.63 37.59 37.59 0 0012.05 17.91 16.9 16.9 0 014.91 6.94 37.66 37.66 0 008.4 13.32 20.3 20.3 0 015.67 14.1 37.51 37.51 0 002 12.38 9.91 9.91 0 01.37 1.52 37.6 37.6 0 005.08 13.82 10.74 10.74 0 11-18.37 11.12 9.25 9.25 0 01-.72-1.4 37.81 37.81 0 00-18.06-19.46A20.39 20.39 0 01427 236.14 38.18 38.18 0 00406.9 206a20.66 20.66 0 01-8.19-8.36 37.8 37.8 0 00-18.77-17.5 24.61 24.61 0 01-8.83-6.66 37.67 37.67 0 00-18.74-12.36 18.69 18.69 0 01-8.51-5.41 37.7 37.7 0 00-18.51-11.54 18.29 18.29 0 01-3.13-1.22 37.56 37.56 0 00-21.07-4.09q-.75.06-1.5.06a17.36 17.36 0 117.58-33 37.6 37.6 0 0021.14 3.76 17.83 17.83 0 011.79-.04z" fill="#abd066" fill-rule="evenodd"/><path d="M237 340.44a149.75 149.75 0 0133-209.19q5.42-3.94 11.18-7.39A114.3 114.3 0 01237 340.44z" fill="#9fc05f" fill-rule="evenodd"/><path d="M237 340.44a149 149 0 01-28.67-88.11 152 152 0 01.81-15.68 162.71 162.71 0 01132.43-37.25A114.38 114.38 0 01237 340.4z" fill="#91b351" fill-rule="evenodd"/><path d="M299.85 426.28c165.15 0 299.85-3.21 299.85-7.14S465 412 299.85 412 0 415.2 0 419.14s134.69 7.14 299.85 7.14z" fill="#d55527" fill-rule="evenodd"/><path d="M117.22 198.11h141.55v183.32a37.82 37.82 0 01-37.71 37.71h-66.14a37.82 37.82 0 01-37.7-37.71z" fill="#99c1e7" fill-rule="evenodd"/><path d="M117.22 198.11h141.55c-29.2 0-29.2-44.11 0-44.11H117.22c29.16 0 29.16 44.11 0 44.11z" fill="#7daddd" fill-rule="evenodd"/><path d="M117.22 154h141.55v-49.87a37.81 37.81 0 00-37.71-37.7h-66.14a37.8 37.8 0 00-37.7 37.7z" fill="#99c1e7" fill-rule="evenodd"/><path fill="#d8eaf8" d="M116.56 227.11h97.64v111.96h-97.64z"/><path fill="#7daddd" d="M164.29 13.01h47.42v53.41h-47.42z"/><path d="M170.26 0h35.47a13.05 13.05 0 0113 13v26.72h-61.5V13a13.06 13.06 0 0113.03-13z" fill="#d55527" fill-rule="evenodd"/><path fill="#99c1e7" d="M160.73 46.55h54.53v7.32h-54.53z"/><path d="M421.18 286.23V409.9a9.27 9.27 0 01-9.23 9.24H283.57a9.27 9.27 0 01-9.23-9.24V286.23a21.33 21.33 0 01-15.24-20.37 21.3 21.3 0 0121.24-21.23h134.84a21.29 21.29 0 0121.23 21.23 21.33 21.33 0 01-15.23 20.37z" fill="#be8e5e" fill-rule="evenodd"/><path d="M332.08 286.23V409.9a9.27 9.27 0 01-9.24 9.24H194.5a9.27 9.27 0 01-9.23-9.24V286.23A21.33 21.33 0 01170 265.86a21.3 21.3 0 0121.24-21.23h134.84a21.29 21.29 0 0121.23 21.23 21.33 21.33 0 01-15.23 20.37z" fill="#d6ae85" fill-rule="evenodd"/><path d="M204.57 271.87a3.46 3.46 0 11-3.46 3.46 3.46 3.46 0 013.46-3.46zm83.56 15.46a2.77 2.77 0 11-2.77 2.77 2.77 2.77 0 012.77-2.77zm-56.46-10.85a3.81 3.81 0 11-3.81 3.81 3.82 3.82 0 013.81-3.81zm58.9 54.52a3.35 3.35 0 11-3.35 3.35 3.35 3.35 0 013.35-3.35zm-56.9 60.94a4.85 4.85 0 11-4.85 4.85 4.84 4.84 0 014.84-4.84zm-20.89-89.79a5 5 0 11-5 5 5 5 0 015-5zm45.59-18.24a3.46 3.46 0 11-3.47 3.46 3.46 3.46 0 013.47-3.46zm16 73.86a3.58 3.58 0 11-3.58 3.58 3.58 3.58 0 013.58-3.58zm28.51 27a4.62 4.62 0 11-4.62 4.62 4.6 4.6 0 014.6-4.62zm3.92-39a7.39 7.39 0 11-7.38 7.4 7.39 7.39 0 017.38-7.4zm-1.38-37.16a5.77 5.77 0 11-5.77 5.77 5.77 5.77 0 015.77-5.77zM301 272.14a3.23 3.23 0 11-3.23 3.23 3.23 3.23 0 013.23-3.23zM277.57 307a2.2 2.2 0 11-2.19 2.21 2.19 2.19 0 012.19-2.19zm-59.52 26.5a2.89 2.89 0 11-2.89 2.89 2.88 2.88 0 012.84-2.89zM210 380.36a3.58 3.58 0 11-3.58 3.58 3.59 3.59 0 013.58-3.58zm56.67 6.23a4.16 4.16 0 11-4.16 4.16 4.15 4.15 0 014.15-4.15zm-23.78-30a4.62 4.62 0 11-4.62 4.62 4.62 4.62 0 014.59-4.62zM265.14 328a3.58 3.58 0 11-3.58 3.58 3.57 3.57 0 013.56-3.58zm-26.9-29.32a7.62 7.62 0 11-7.61 7.63 7.62 7.62 0 017.58-7.66z" fill="#be8e5e" fill-rule="evenodd"/><path fill="#b3804d" d="M332.08 286.23h89.1v10.8h-89.1z"/><path fill="#d55527" d="M363.71 402.05h200.82v17.08H363.71z"/><path fill="#f2df53" d="M471.5 348.96h58.17v53.09H471.5z"/><path fill="#fef081" d="M398.56 348.96h93.26v53.09h-93.26z"/><path d="M80.57 302.57H184a34.72 34.72 0 0134.61 34.62v47.32A34.73 34.73 0 01184 419.14H80.57z" fill="#d55527" fill-rule="evenodd"/><path d="M27.45 302.57h103.42a34.71 34.71 0 0134.62 34.62v47.32a34.73 34.73 0 01-34.62 34.63H27.45z" fill="#fedd30" fill-rule="evenodd"/><path d="M55.5 323.11c5.42 0 9.81 6.1 9.81 13.62s-4.39 13.62-9.81 13.62-9.81-6.1-9.81-13.62 4.39-13.62 9.81-13.62zm80 28.39c2.54 0 4.61 2.48 4.61 5.54s-2.07 5.54-4.61 5.54-4.62-2.48-4.62-5.54 2.12-5.54 4.62-5.54zM101 397c2.86 0 5.19 2.73 5.19 6.11s-2.33 6.12-5.19 6.12-5.2-2.74-5.2-6.12S98.11 397 101 397zm-58.43-26.34c2.35 0 4.27 2.64 4.27 5.89s-1.92 5.89-4.27 5.89-4.27-2.64-4.27-5.89 1.91-5.89 4.27-5.89zm35-57a5.16 5.16 0 014.84 5.42c0 3-2.17 5.43-4.84 5.43a5.46 5.46 0 010-10.85zm63.57 7.34c2.74 0 5 3 5 6.58s-2.22 6.58-5 6.58-5-2.94-5-6.58 2.22-6.58 5-6.58zm-12.93 59.79c3.51 0 6.35 3.67 6.35 8.19s-2.84 8.2-6.35 8.2-6.34-3.67-6.34-8.2 2.84-8.19 6.34-8.19zm-54.59-4.59c4.59 0 8.31 4.45 8.31 9.93s-3.72 9.92-8.31 9.92-8.31-4.44-8.31-9.92 3.69-9.93 8.31-9.93zm32.43-40.86c6.57 0 11.89 6.67 11.89 14.89s-5.32 14.89-11.89 14.89-11.88-6.66-11.88-14.89 5.32-14.89 11.88-14.89z" fill="#dfb825" fill-rule="evenodd"/></svg>