<svg id="Layer_1" data-name="Layer 1" xmlns="http://www.w3.org/2000/svg" xmlns:xlink="http://www.w3.org/1999/xlink" viewBox="0 0 445.69 324.1"><defs><clipPath id="clip-path" transform="translate(-41.8 -87.4)"><circle cx="245.31" cy="250.21" r="100.6" style="fill:none"/></clipPath></defs><g style="opacity:0.30000001192092896"><path d="M248.3,407.7c0,2.1,41.2,3.8,92.1,3.8s92.1-1.7,92.1-3.8-41.2-3.8-92.1-3.8S248.3,405.6,248.3,407.7Z" transform="translate(-41.8 -87.4)"/></g><circle cx="204" cy="163.19" r="105.2" style="fill:#45bbc6"/><g style="clip-path:url(#clip-path)"><path d="M449.6,212.7c1.2.7,2.7,1.2,3.6,2.1,2.6,2.6,5,5.3,7.4,8.1,1.1,1.2,2,1.4,3,.1,1.5-2.1,2.9-4.4,4.6-6.4,3.2-3.7,3.1-8.9-.9-11.8-3.6-2.6-7.3-5-10.9-7.4-1.3-.8-2.1-1.6,0-2.4a10.84,10.84,0,0,1,1.9-.8c4.8-.4,9.6-.9,14.4-1.1,3.3-.2,6.3-1,8.1-3.7a88.78,88.78,0,0,0,6.2-10.8,4.3,4.3,0,0,0-2.4-5.4A18.11,18.11,0,0,0,479,172c-5.5-.2-10.9-.1-16.4-.2-2.6-.1-5.2-.6-7.9-.6-4.6,0-9.3.5-13.9.5-5.5,0-11-.1-16.5-.6-4-.4-7.8-1.7-11.8-2.2-6.2-.9-12.5-.7-18.4-3.2-1.4-.6-3.2-1.1-4.5-.6a74.87,74.87,0,0,0-11.8,5.6c-6.4,4-13.1,6.6-20.8,5.8-3.6-.4-7.1-.7-10.7-1.2-3.8-.6-7.5-1.6-11.3-2.1-7.1-.9-13,2.5-18.8,6-2.5,1.5-2.6,3.1-1.2,5.7,1.2,2.1,2.4,4.1,3.5,6.2,1.4,2.6,2.5,2.8,5.2,1.6,3-1.3,6-2.4,9.1-3.5,2-.7,3.1.7,3.5,2.4.8,4.1-1.7,6.9-5.9,6.9-8.4,0-16.8-.1-25.1-.1a10.57,10.57,0,0,0-3.9.9c-1.7.7-3.3,1.7-5.1,2.4-2,.7-3.5,1.7-3.3,4a55.37,55.37,0,0,0,1.2,6.9c1.5,5.8,5.5,8.1,10.9,5.8,5-2.1,9.8-4.7,14.8-6.9,1.6-.7,3.7-1.5,5-.9a32.77,32.77,0,0,0,13.4,2.7c2.6,0,5.3-.1,7.9,0,3.4.2,4.7,2.8,2.8,5.6a14.46,14.46,0,0,1-2.1,2.2c-4.6,4.4-9.6,8.1-16.5,6.9a86.84,86.84,0,0,1-10.1-2.3c-6.4-2.1-13-3.5-19.8-2.9a14.24,14.24,0,0,0-9.4,4.9c-2.8,3.1-5.1,6.6-7.8,9.7-7,7.8-6.6,10.2.4,17,5.4,5.3,11.6,9.6,19.3,10.8,4.1.7,8.3.9,12.5,1.2,1.6.1,2.4.5,2.1,2.4a62.75,62.75,0,0,0-1.1,9.6c0,5.3.5,10.6.8,16,.3,4.3,2.3,7.7,5.3,10.8,2.5,2.5,4.8,5.3,7.1,8,1.1,1.3,2,2.7,3.1,4a2.41,2.41,0,0,0,3.8.3c2.5-2.6,5.6-4.9,7.1-8a267.88,267.88,0,0,0,10.7-25.4c2.6-7.2,6.3-13,13.1-16.9a54.52,54.52,0,0,0,9.4-7.2c2.4-2.1,2-3.2-.8-4.5a28.49,28.49,0,0,1-3.1-1.2,79.83,79.83,0,0,1-22.2-19.1c-1-1.2-1.3-2.9-1.9-4.4,3.3-1.1,4.5.9,5.3,2.6,3.9,7.4,10.2,11.4,17.9,13.7a5.54,5.54,0,0,0,6.3-1.8c2.9-3.6,2.8-5-.1-8.5s-5.2-7.1-7.8-10.6a3.22,3.22,0,0,0,.2-.6c2.5.9,5.1,1.7,7.6,2.7,4.4,1.9,9.2,3.5,12.3,7.4,3.3,4.2,6.6,8.4,9.8,12.7,1.3,1.8,2.3,3.9,3.8,5.4a4.59,4.59,0,0,0,3.8.9,4.2,4.2,0,0,0,2.5-2.7,53.23,53.23,0,0,0,1.2-8c.8-7.5,5.5-9.8,11.8-5.8a62.08,62.08,0,0,1,6.3,5.2c3.4,2.9,6.5,6.2,10.3,8.5,5.3,3.2,6.3,2.7,9.7-1.3,2.7-3.2,2.8-5.2.6-8.5-.8-1.1-1.5-2.2-2.3-3.3a15.31,15.31,0,0,1-2.3-11.9C447,222.3,448.2,218,449.6,212.7Z" transform="translate(-41.8 -87.4)" style="fill:#cce4c4"/><path d="M183.1,235.7c5.5-.4,10.7-.8,16-1.2a11.44,11.44,0,0,0,9.8-6.1,31.43,31.43,0,0,1,3.8-5.7c5.2-6.2,11.5-10.2,20-9.5a10.51,10.51,0,0,0,10.2-5.3,40.84,40.84,0,0,0,3.7-7.2c1.9-5.8.5-8.9-5.1-12-1.1-.6-2.3-1.5-3.5-1.5-4.1-.2-8.3-.6-12.3.1-2.8.4-4.3.8-5.9-1.7-1.2-1.8-.8-3.5.7-5.1a3.38,3.38,0,0,0,.6-2.1c-2.9-1.1-4.7-3.4-6.4-5.8a1.52,1.52,0,0,0-1.1-.6c-6.5-.2-12.9-1-19,3.4-5.8,4.2-12.7,4.6-19.3.9-4.3-2.4-8-5.7-13-6.9-5.2-1.2-9.8-1.1-14.3,2.2a87.28,87.28,0,0,1-13.2,8.5,4.32,4.32,0,0,0-.7,7.5c4.8,3.4,10,5.9,16,5.4,3.2-.2,6.4-.8,9.7-.9,1.1,0,2.9,1,3.1,1.8a7.73,7.73,0,0,1-.6,4.7,90,90,0,0,1-4.3,8.1c-3.2,5.7-5.4,11.5-4.5,18.3.4,2.9-.1,6,.2,9,.3,3.6,1.1,7.5,4.5,9.4a18.82,18.82,0,0,0,12.4,2c5.1-.8,10.3-1.3,15,1.7,4.2,2.6,6,7.1,8.2,11.3,1.9,3.6,1.5,6.7-1.9,9.2-.6.4-.8,1.3-1.3,1.9-1.5,1.7-.7,2.9.9,3.9,3.4,2.2,6.8,4.3,10.1,6.5,3.8,2.5,6.9,5.8,8.1,10.2,2.2,8.5,1.3,17.2.5,25.9-.5,5.7.4,11,3.7,15.8,3.2,4.6,7.7,7.3,12.7,9.3,5.6,2.2,9.5-.4,11.1-4.6s2.7-8.9,3.9-13.3c1.1-4.1,2.5-7.8,6-10.6a22.38,22.38,0,0,0,5.5-6c4.8-8.6,6.6-18.1,7.7-27.7.2-1.6.4-3.3.7-4.9.8-3.7-.8-7.7-3.8-8.7-4-1.3-8.2-2.1-12.2-3.4a69,69,0,0,1-10.2-3.8c-3.9-1.9-7.4-5.1-11.4-6.5-7.1-2.4-14.6-3.6-21.8-5.5a91.72,91.72,0,0,1-13.4-4.5C185.9,240.5,183.3,238.9,183.1,235.7Z" transform="translate(-41.8 -87.4)" style="fill:#cce4c4"/><path d="M247.9,168.1c.8,1.4,1.4,2.2,1.8,3,1.2,2.3,2.3,4.7,3.4,7,.8,1.8.7,4.4,2.9,5.1a18.52,18.52,0,0,0,12.3-.3,121.9,121.9,0,0,0,14.6-7c3.8-2,7.6-4.1,9.8-8.2.7-1.3,1.1-2.3-.4-3.6-5.3-4.4-11.1-7.9-17.8-9.1-8.1-1.5-15.7.3-21.8,6.3C250.9,163.4,249.6,165.8,247.9,168.1Z" transform="translate(-41.8 -87.4)" style="fill:#cce4c4"/><g style="opacity:0.5"><path d="M449.6,212.7c-1.4,5.3-2.6,9.6-3.6,14a15.23,15.23,0,0,0,2.3,11.9c.7,1.1,1.5,2.2,2.3,3.3,2.3,3.4,2.2,5.3-.6,8.5-3.4,4-4.5,4.5-9.7,1.3-3.8-2.3-6.9-5.6-10.3-8.5a79.05,79.05,0,0,0-6.3-5.2c-6.3-4.1-11.1-1.7-11.8,5.8a53.23,53.23,0,0,1-1.2,8,4.47,4.47,0,0,1-2.5,2.7,4.67,4.67,0,0,1-3.8-.9c-1.5-1.5-2.5-3.6-3.8-5.4-3.2-4.3-6.4-8.5-9.8-12.7-3.2-4-7.9-5.5-12.3-7.4-2.5-1.1-5-1.8-7.6-2.7a2.52,2.52,0,0,0-.2.6c2.6,3.6,5,7.2,7.8,10.6s3,4.9.1,8.5a5.54,5.54,0,0,1-6.3,1.8c-7.7-2.3-14-6.3-17.9-13.7-.9-1.6-2-3.6-5.3-2.6.6,1.5.9,3.3,1.9,4.4a78.21,78.21,0,0,0,22.2,19.1c1,.5,2.1.8,3.1,1.2,2.8,1.2,3.2,2.3.8,4.5a54.52,54.52,0,0,1-9.4,7.2c-6.8,3.9-10.5,9.7-13.1,16.9a267.88,267.88,0,0,1-10.7,25.4c-1.5,3.1-4.6,5.4-7.1,8a2.41,2.41,0,0,1-3.8-.3c-1.1-1.3-2-2.7-3.1-4-2.3-2.7-4.6-5.4-7.1-8-3-3-5.1-6.5-5.3-10.8-.3-5.3-.8-10.6-.8-16a62.75,62.75,0,0,1,1.1-9.6c.3-1.9-.4-2.3-2.1-2.4-4.2-.3-8.4-.5-12.5-1.2-7.7-1.3-13.8-5.5-19.3-10.8-7-6.9-7.3-9.2-.4-17,2.8-3.1,5.1-6.6,7.8-9.7a13.61,13.61,0,0,1,9.4-4.9c6.8-.6,13.3.8,19.8,2.9a70.26,70.26,0,0,0,10.1,2.3c6.9,1.2,11.9-2.5,16.5-6.9a21.83,21.83,0,0,0,2.1-2.2c1.9-2.8.6-5.4-2.8-5.6a69.4,69.4,0,0,0-7.9,0,32.44,32.44,0,0,1-13.4-2.7c-1.3-.6-3.5.2-5,.9-5,2.2-9.8,4.8-14.8,6.9-5.4,2.2-9.4,0-10.9-5.8a39.84,39.84,0,0,1-1.2-6.9c-.3-2.3,1.3-3.3,3.3-4,1.7-.6,3.3-1.7,5.1-2.4a10.57,10.57,0,0,1,3.9-.9c8.4,0,16.8.1,25.1.1,4.3,0,6.7-2.9,5.9-6.9-.3-1.6-1.5-3-3.5-2.4a77.5,77.5,0,0,0-9.1,3.5c-2.7,1.2-3.8,1-5.2-1.6-1.2-2.1-2.3-4.2-3.5-6.2-1.4-2.5-1.3-4.2,1.2-5.7,5.8-3.4,11.6-6.9,18.8-6,3.8.5,7.5,1.5,11.3,2.1,3.5.5,7.1.8,10.7,1.2,7.7.8,14.4-1.8,20.8-5.8a70.89,70.89,0,0,1,11.8-5.6c1.2-.5,3.1.1,4.5.6,5.9,2.5,12.3,2.3,18.4,3.2,3.9.5,7.8,1.8,11.8,2.2,5.5.5,11,.6,16.5.6,4.6,0,9.3-.4,13.9-.5,2.6,0,5.2.6,7.9.6,5.5.1,10.9,0,16.4.2a21.54,21.54,0,0,1,5.6,1.2,4.3,4.3,0,0,1,2.4,5.4,77.31,77.31,0,0,1-6.2,10.8c-1.8,2.7-4.9,3.5-8.1,3.7-4.8.2-9.6.7-14.4,1.1a9.73,9.73,0,0,0-1.9.8c-2.1.8-1.3,1.6,0,2.4,3.7,2.5,7.4,4.8,10.9,7.4,3.9,2.9,4.1,8.1.9,11.8-1.7,2-3,4.3-4.6,6.4-1,1.3-1.9,1.2-3-.1-2.4-2.8-4.8-5.5-7.4-8.1C452.3,213.9,450.8,213.4,449.6,212.7Z" transform="translate(-41.8 -87.4)" style="fill:#cce4c4"/></g><g style="opacity:0.5"><path d="M183.1,235.7c.2,3.2,2.8,4.8,5.1,5.8a87.88,87.88,0,0,0,13.4,4.5c7.3,2,14.7,3.2,21.8,5.5,4.1,1.3,7.5,4.5,11.4,6.5a66.24,66.24,0,0,0,10.2,3.8c4,1.3,8.2,2.1,12.2,3.4,3.1,1,4.6,5,3.8,8.7-.3,1.6-.5,3.3-.7,4.9-1,9.7-2.8,19.2-7.7,27.7a22.38,22.38,0,0,1-5.5,6c-3.5,2.8-4.9,6.5-6,10.6-1.2,4.5-2.3,9-3.9,13.3s-5.5,6.8-11.1,4.6c-5-2-9.5-4.7-12.7-9.3-3.3-4.8-4.2-10.1-3.7-15.8.8-8.7,1.7-17.4-.5-25.9-1.1-4.4-4.3-7.7-8.1-10.2-3.3-2.2-6.7-4.4-10.1-6.5-1.6-1-2.4-2.2-.9-3.9.5-.6.7-1.4,1.3-1.9,3.4-2.5,3.8-5.5,1.9-9.2-2.2-4.2-4-8.7-8.2-11.3-4.7-2.9-9.9-2.4-15-1.7a19.56,19.56,0,0,1-12.4-2c-3.4-1.9-4.2-5.7-4.5-9.4-.2-3,.2-6-.2-9-.9-6.8,1.4-12.6,4.5-18.3,1.5-2.7,3-5.3,4.3-8.1a7.73,7.73,0,0,0,.6-4.7c-.2-.8-2-1.8-3.1-1.8-3.2,0-6.4.6-9.7.9-6.1.4-11.2-2.1-16-5.4a4.32,4.32,0,0,1,.7-7.5,87.28,87.28,0,0,0,13.2-8.5c4.5-3.4,9.1-3.4,14.3-2.2,5,1.2,8.8,4.4,13,6.9a17,17,0,0,0,19.3-.9c6.1-4.4,12.4-3.5,19-3.4a1.52,1.52,0,0,1,1.1.6c1.7,2.4,3.5,4.7,6.4,5.8a4.49,4.49,0,0,1-.6,2.1c-1.5,1.6-1.9,3.3-.7,5.1,1.6,2.5,3.1,2.1,5.9,1.7,4-.6,8.2-.3,12.3-.1a9.78,9.78,0,0,1,3.5,1.5c5.6,3.1,7,6.1,5.1,12a28.89,28.89,0,0,1-3.7,7.2,10.51,10.51,0,0,1-10.2,5.3c-8.5-.6-14.9,3.3-20,9.5a47.05,47.05,0,0,0-3.8,5.7,11.86,11.86,0,0,1-9.8,6.1C193.9,234.9,188.6,235.3,183.1,235.7Z" transform="translate(-41.8 -87.4)" style="fill:#cce4c4"/></g><path d="M247.9,168.1c1.7-2.3,3-4.7,4.9-6.6,6.1-6,13.7-7.8,21.8-6.3,6.7,1.2,12.5,4.7,17.8,9.1,1.5,1.2,1,2.3.4,3.6-2.1,4.1-6,6.2-9.8,8.2a108.82,108.82,0,0,1-14.6,7,19.17,19.17,0,0,1-12.3.3c-2.3-.7-2.1-3.3-2.9-5.1-1.1-2.4-2.2-4.7-3.4-7A32.66,32.66,0,0,0,247.9,168.1Z" transform="translate(-41.8 -87.4)" style="fill:#cce4c4"/></g><path d="M344.4,344.3l14.9,10.5,12.3-17.6-13.7-9.6A142.91,142.91,0,0,1,344.4,344.3Z" transform="translate(-41.8 -87.4)" style="fill:#cce4c4"/><path d="M381.9,250.6c0-75.1-61.1-136.1-136.1-136.1A134.82,134.82,0,0,0,179,132.2l6.3,14.6a119.47,119.47,0,0,1,60.5-16.5c66.3,0,120.3,54,120.3,120.3s-54,120.3-120.3,120.3-120.3-54-120.3-120.3a119.22,119.22,0,0,1,12.6-53.3l-15-5.2a135.39,135.39,0,0,0-13.4,58.5c0,75.1,61.1,136.1,136.1,136.1a135.71,135.71,0,0,0,98.6-42.5A137.59,137.59,0,0,0,358,327.5,135.29,135.29,0,0,0,381.9,250.6Z" transform="translate(-41.8 -87.4)" style="fill:#f1f8ef"/><g style="opacity:0.30000001192092896"><path d="M195.4,189.7c-2.1-2.3-7.9-.4-13,4.2s-7.5,10.2-5.5,12.5,7.9.4,13-4.2S197.5,192,195.4,189.7Z" transform="translate(-41.8 -87.4)" style="fill:#1e4c4c"/></g><path d="M182.7,196.6S136,189,125.1,176.9a29.45,29.45,0,0,1,43.6-39.6C179.6,149.4,182.7,196.6,182.7,196.6Zm-27.6-50a12.81,12.81,0,1,0-.9,18.1A12.73,12.73,0,0,0,155.1,146.6Z" transform="translate(-41.8 -87.4)" style="fill:#fcc020"/><path d="M356.4,358.9,427.8,409l2.7-2.6a68.63,68.63,0,0,0,14.3-20.6l1.3-2.8-71.4-50.1Z" transform="translate(-41.8 -87.4)" style="fill:#1a7c7b"/><path d="M351.2,252.2A106.57,106.57,0,0,0,244.6,145.6V355.8C303.5,355.7,351.2,311,351.2,252.2Z" transform="translate(-41.8 -87.4)" style="fill:#1e4c4c;opacity:0.20000000298023224;isolation:isolate"/><path d="M408.1,168a2.4,2.4,0,1,0-2.4,2.4A2.43,2.43,0,0,0,408.1,168Z" transform="translate(-41.8 -87.4)" style="fill:#fff"/><path d="M224,89a1.6,1.6,0,1,0-1.6,1.6A1.58,1.58,0,0,0,224,89Z" transform="translate(-41.8 -87.4)" style="fill:#fff"/><path d="M62.7,195.2a2.2,2.2,0,1,0-2.2,2.2A2.22,2.22,0,0,0,62.7,195.2Z" transform="translate(-41.8 -87.4)" style="fill:#fff"/><path d="M80.3,244.9a1.8,1.8,0,1,0-1.8,1.8A1.86,1.86,0,0,0,80.3,244.9Z" transform="translate(-41.8 -87.4)" style="fill:#fff"/><path d="M132.9,367.2a1.8,1.8,0,1,0-1.8,1.8A1.79,1.79,0,0,0,132.9,367.2Z" transform="translate(-41.8 -87.4)" style="fill:#fff"/><path d="M45.4,297.2a1.8,1.8,0,1,0-1.8,1.8A1.86,1.86,0,0,0,45.4,297.2Z" transform="translate(-41.8 -87.4)" style="fill:#fff"/><path d="M417.1,263.7a1.8,1.8,0,1,0-1.8,1.8A1.79,1.79,0,0,0,417.1,263.7Z" transform="translate(-41.8 -87.4)" style="fill:#fff"/></svg>