<?xml version="1.0" encoding="utf-8"?>
<!-- Generator: Adobe Illustrator 24.3.0, SVG Export Plug-In . SVG Version: 6.00 Build 0)  -->
<svg version="1.1" id="Layer_1" xmlns="http://www.w3.org/2000/svg" xmlns:xlink="http://www.w3.org/1999/xlink" x="0px" y="0px"
	 viewBox="0 0 500 500" style="enable-background:new 0 0 500 500;" xml:space="preserve">
<style type="text/css">
	.st0{opacity:0.3;}
	.st1{fill:#45BBC6;}
	.st2{clip-path:url(#SVGID_2_);}
	.st3{fill:#CCE4C4;}
	.st4{opacity:0.5;}
	.st5{fill:#F1F8EF;}
	.st6{fill:#1E4C4C;}
	.st7{fill:#FCC020;}
	.st8{fill:#1A7C7B;}
	.st9{opacity:0.2;fill:#1E4C4C;enable-background:new    ;}
	.st10{fill:#FFFFFF;}
</style>
<g>
	<g class="st0">
		<path d="M248.3,407.7c0,2.1,41.2,3.8,92.1,3.8c50.8,0,92.1-1.7,92.1-3.8c0-2.1-41.2-3.8-92.1-3.8
			C289.5,403.9,248.3,405.6,248.3,407.7z"/>
	</g>
	<g>
		<g>
			<ellipse class="st1" cx="245.8" cy="250.6" rx="105.2" ry="105.2"/>
		</g>
		<g>
			<g>
				<defs>
					<circle id="SVGID_1_" cx="245.3" cy="250.2" r="100.6"/>
				</defs>
				<clipPath id="SVGID_2_">
					<use xlink:href="#SVGID_1_"  style="overflow:visible;"/>
				</clipPath>
				<g class="st2">
					<g>
						<path class="st3" d="M449.6,212.7c1.2,0.7,2.7,1.2,3.6,2.1c2.6,2.6,5,5.3,7.4,8.1c1.1,1.2,2,1.4,3,0.1
							c1.5-2.1,2.9-4.4,4.6-6.4c3.2-3.7,3.1-8.9-0.9-11.8c-3.6-2.6-7.3-5-10.9-7.4c-1.3-0.8-2.1-1.6,0-2.4c0.6-0.2,1.2-0.7,1.9-0.8
							c4.8-0.4,9.6-0.9,14.4-1.1c3.3-0.2,6.3-1,8.1-3.7c2.4-3.4,4.3-7.1,6.2-10.8c0.9-1.9-0.4-4.7-2.4-5.4c-1.8-0.6-3.7-1.2-5.6-1.2
							c-5.5-0.2-10.9-0.1-16.4-0.2c-2.6-0.1-5.2-0.6-7.9-0.6c-4.6,0-9.3,0.5-13.9,0.5c-5.5,0-11-0.1-16.5-0.6
							c-4-0.4-7.8-1.7-11.8-2.2c-6.2-0.9-12.5-0.7-18.4-3.2c-1.4-0.6-3.2-1.1-4.5-0.6c-4,1.6-8.1,3.3-11.8,5.6
							c-6.4,4-13.1,6.6-20.8,5.8c-3.6-0.4-7.1-0.7-10.7-1.2c-3.8-0.6-7.5-1.6-11.3-2.1c-7.1-0.9-13,2.5-18.8,6
							c-2.5,1.5-2.6,3.1-1.2,5.7c1.2,2.1,2.4,4.1,3.5,6.2c1.4,2.6,2.5,2.8,5.2,1.6c3-1.3,6-2.4,9.1-3.5c2-0.7,3.1,0.7,3.5,2.4
							c0.8,4.1-1.7,6.9-5.9,6.9c-8.4,0-16.8-0.1-25.1-0.1c-1.3,0-2.7,0.4-3.9,0.9c-1.7,0.7-3.3,1.7-5.1,2.4c-2,0.7-3.5,1.7-3.3,4
							c0.3,2.3,0.6,4.6,1.2,6.9c1.5,5.8,5.5,8.1,10.9,5.8c5-2.1,9.8-4.7,14.8-6.9c1.6-0.7,3.7-1.5,5-0.9c4.3,1.8,8.8,2.8,13.4,2.7
							c2.6,0,5.3-0.1,7.9,0c3.4,0.2,4.7,2.8,2.8,5.6c-0.6,0.8-1.3,1.5-2.1,2.2c-4.6,4.4-9.6,8.1-16.5,6.9c-3.4-0.6-6.8-1.3-10.1-2.3
							c-6.4-2.1-13-3.5-19.8-2.9c-3.8,0.3-6.9,2.2-9.4,4.9c-2.8,3.1-5.1,6.6-7.8,9.7c-7,7.8-6.6,10.2,0.4,17
							c5.4,5.3,11.6,9.6,19.3,10.8c4.1,0.7,8.3,0.9,12.5,1.2c1.6,0.1,2.4,0.5,2.1,2.4c-0.5,3.2-1.1,6.4-1.1,9.6
							c0,5.3,0.5,10.6,0.8,16c0.3,4.3,2.3,7.7,5.3,10.8c2.5,2.5,4.8,5.3,7.1,8c1.1,1.3,2,2.7,3.1,4s2.6,1.5,3.8,0.3
							c2.5-2.6,5.6-4.9,7.1-8c4-8.3,7.6-16.8,10.7-25.4c2.6-7.2,6.3-13,13.1-16.9c3.4-1.9,6.5-4.6,9.4-7.2c2.4-2.1,2-3.2-0.8-4.5
							c-1-0.4-2.2-0.7-3.1-1.2c-8.7-4.9-15.9-11.5-22.2-19.1c-1-1.2-1.3-2.9-1.9-4.4c3.3-1.1,4.5,0.9,5.3,2.6
							c3.9,7.4,10.2,11.4,17.9,13.7c2.3,0.7,4.6,0.3,6.3-1.8c2.9-3.6,2.8-5-0.1-8.5c-2.8-3.4-5.2-7.1-7.8-10.6c0,0,0.1-0.2,0.2-0.6
							c2.5,0.9,5.1,1.7,7.6,2.7c4.4,1.9,9.2,3.5,12.3,7.4c3.3,4.2,6.6,8.4,9.8,12.7c1.3,1.8,2.3,3.9,3.8,5.4
							c0.8,0.8,2.6,1.2,3.8,0.9c1-0.3,2.3-1.6,2.5-2.7c0.7-2.6,0.9-5.3,1.2-8c0.8-7.5,5.5-9.8,11.8-5.8c2.3,1.5,4.2,3.4,6.3,5.2
							c3.4,2.9,6.5,6.2,10.3,8.5c5.3,3.2,6.3,2.7,9.7-1.3c2.7-3.2,2.8-5.2,0.6-8.5c-0.8-1.1-1.5-2.2-2.3-3.3
							c-2.4-3.7-3.2-7.7-2.3-11.9C447,222.3,448.2,218,449.6,212.7z"/>
					</g>
					<g>
						<path class="st3" d="M183.1,235.7c5.5-0.4,10.7-0.8,16-1.2c4.3-0.3,7.6-2.2,9.8-6.1c1.1-2,2.3-4,3.8-5.7
							c5.2-6.2,11.5-10.2,20-9.5c4.5,0.3,7.9-1.6,10.2-5.3c1.4-2.3,2.8-4.7,3.7-7.2c1.9-5.8,0.5-8.9-5.1-12
							c-1.1-0.6-2.3-1.5-3.5-1.5c-4.1-0.2-8.3-0.6-12.3,0.1c-2.8,0.4-4.3,0.8-5.9-1.7c-1.2-1.8-0.8-3.5,0.7-5.1
							c0.5-0.5,0.7-2,0.6-2.1c-2.9-1.1-4.7-3.4-6.4-5.8c-0.2-0.3-0.7-0.6-1.1-0.6c-6.5-0.2-12.9-1-19,3.4
							c-5.8,4.2-12.7,4.6-19.3,0.9c-4.3-2.4-8-5.7-13-6.9c-5.2-1.2-9.8-1.1-14.3,2.2c-4.2,3.1-8.5,6.2-13.2,8.5
							c-3.4,1.7-3.2,5.8-0.7,7.5c4.8,3.4,10,5.9,16,5.4c3.2-0.2,6.4-0.8,9.7-0.9c1.1,0,2.9,1,3.1,1.8c0.4,1.4,0,3.3-0.6,4.7
							c-1.2,2.8-2.8,5.4-4.3,8.1c-3.2,5.7-5.4,11.5-4.5,18.3c0.4,2.9-0.1,6,0.2,9c0.3,3.6,1.1,7.5,4.5,9.4c3.7,2.1,8,2.7,12.4,2
							c5.1-0.8,10.3-1.3,15,1.7c4.2,2.6,6,7.1,8.2,11.3c1.9,3.6,1.5,6.7-1.9,9.2c-0.6,0.4-0.8,1.3-1.3,1.9c-1.5,1.7-0.7,2.9,0.9,3.9
							c3.4,2.2,6.8,4.3,10.1,6.5c3.8,2.5,6.9,5.8,8.1,10.2c2.2,8.5,1.3,17.2,0.5,25.9c-0.5,5.7,0.4,11,3.7,15.8
							c3.2,4.6,7.7,7.3,12.7,9.3c5.6,2.2,9.5-0.4,11.1-4.6c1.6-4.3,2.7-8.9,3.9-13.3c1.1-4.1,2.5-7.8,6-10.6c2.1-1.7,4.2-3.7,5.5-6
							c4.8-8.6,6.6-18.1,7.7-27.7c0.2-1.6,0.4-3.3,0.7-4.9c0.8-3.7-0.8-7.7-3.8-8.7c-4-1.3-8.2-2.1-12.2-3.4
							c-3.5-1.1-7-2.2-10.2-3.8c-3.9-1.9-7.4-5.1-11.4-6.5c-7.1-2.4-14.6-3.6-21.8-5.5c-4.5-1.2-9.1-2.6-13.4-4.5
							C185.9,240.5,183.3,238.9,183.1,235.7z"/>
					</g>
					<g>
						<path class="st3" d="M247.9,168.1c0.8,1.4,1.4,2.2,1.8,3c1.2,2.3,2.3,4.7,3.4,7c0.8,1.8,0.7,4.4,2.9,5.1
							c4.1,1.3,8.4,1.2,12.3-0.3c5-1.9,9.8-4.4,14.6-7c3.8-2,7.6-4.1,9.8-8.2c0.7-1.3,1.1-2.3-0.4-3.6c-5.3-4.4-11.1-7.9-17.8-9.1
							c-8.1-1.5-15.7,0.3-21.8,6.3C250.9,163.4,249.6,165.8,247.9,168.1z"/>
					</g>
					<g class="st4">
						<path class="st3" d="M449.6,212.7c-1.4,5.3-2.6,9.6-3.6,14c-0.9,4.2-0.1,8.3,2.3,11.9c0.7,1.1,1.5,2.2,2.3,3.3
							c2.3,3.4,2.2,5.3-0.6,8.5c-3.4,4-4.5,4.5-9.7,1.3c-3.8-2.3-6.9-5.6-10.3-8.5c-2.1-1.7-4-3.7-6.3-5.2
							c-6.3-4.1-11.1-1.7-11.8,5.8c-0.3,2.7-0.5,5.4-1.2,8c-0.3,1.1-1.5,2.4-2.5,2.7c-1.1,0.3-3-0.1-3.8-0.9
							c-1.5-1.5-2.5-3.6-3.8-5.4c-3.2-4.3-6.4-8.5-9.8-12.7c-3.2-4-7.9-5.5-12.3-7.4c-2.5-1.1-5-1.8-7.6-2.7
							c-0.2,0.5-0.2,0.6-0.2,0.6c2.6,3.6,5,7.2,7.8,10.6c2.9,3.4,3,4.9,0.1,8.5c-1.7,2.1-4,2.5-6.3,1.8c-7.7-2.3-14-6.3-17.9-13.7
							c-0.9-1.6-2-3.6-5.3-2.6c0.6,1.5,0.9,3.3,1.9,4.4c6.3,7.7,13.5,14.2,22.2,19.1c1,0.5,2.1,0.8,3.1,1.2c2.8,1.2,3.2,2.3,0.8,4.5
							c-2.9,2.6-6,5.3-9.4,7.2c-6.8,3.9-10.5,9.7-13.1,16.9c-3.1,8.6-6.7,17.1-10.7,25.4c-1.5,3.1-4.6,5.4-7.1,8
							c-1.2,1.2-2.7,1-3.8-0.3c-1.1-1.3-2-2.7-3.1-4c-2.3-2.7-4.6-5.4-7.1-8c-3-3-5.1-6.5-5.3-10.8c-0.3-5.3-0.8-10.6-0.8-16
							c0-3.2,0.6-6.4,1.1-9.6c0.3-1.9-0.4-2.3-2.1-2.4c-4.2-0.3-8.4-0.5-12.5-1.2c-7.7-1.3-13.8-5.5-19.3-10.8
							c-7-6.9-7.3-9.2-0.4-17c2.8-3.1,5.1-6.6,7.8-9.7c2.5-2.8,5.5-4.6,9.4-4.9c6.8-0.6,13.3,0.8,19.8,2.9c3.3,1.1,6.7,1.7,10.1,2.3
							c6.9,1.2,11.9-2.5,16.5-6.9c0.7-0.7,1.5-1.4,2.1-2.2c1.9-2.8,0.6-5.4-2.8-5.6c-2.6-0.2-5.3-0.1-7.9,0
							c-4.7,0.1-9.1-0.9-13.4-2.7c-1.3-0.6-3.5,0.2-5,0.9c-5,2.2-9.8,4.8-14.8,6.9c-5.4,2.2-9.4,0-10.9-5.8c-0.6-2.2-1-4.6-1.2-6.9
							c-0.3-2.3,1.3-3.3,3.3-4c1.7-0.6,3.3-1.7,5.1-2.4c1.2-0.5,2.6-0.9,3.9-0.9c8.4,0,16.8,0.1,25.1,0.1c4.3,0,6.7-2.9,5.9-6.9
							c-0.3-1.6-1.5-3-3.5-2.4c-3.1,1-6.1,2.1-9.1,3.5c-2.7,1.2-3.8,1-5.2-1.6c-1.2-2.1-2.3-4.2-3.5-6.2c-1.4-2.5-1.3-4.2,1.2-5.7
							c5.8-3.4,11.6-6.9,18.8-6c3.8,0.5,7.5,1.5,11.3,2.1c3.5,0.5,7.1,0.8,10.7,1.2c7.7,0.8,14.4-1.8,20.8-5.8
							c3.7-2.3,7.7-4,11.8-5.6c1.2-0.5,3.1,0.1,4.5,0.6c5.9,2.5,12.3,2.3,18.4,3.2c3.9,0.5,7.8,1.8,11.8,2.2
							c5.5,0.5,11,0.6,16.5,0.6c4.6,0,9.3-0.4,13.9-0.5c2.6,0,5.2,0.6,7.9,0.6c5.5,0.1,10.9,0,16.4,0.2c1.9,0.1,3.8,0.6,5.6,1.2
							c2,0.7,3.3,3.5,2.4,5.4c-1.8,3.7-3.8,7.4-6.2,10.8c-1.8,2.7-4.9,3.5-8.1,3.7c-4.8,0.2-9.6,0.7-14.4,1.1
							c-0.6,0.1-1.2,0.5-1.9,0.8c-2.1,0.8-1.3,1.6,0,2.4c3.7,2.5,7.4,4.8,10.9,7.4c3.9,2.9,4.1,8.1,0.9,11.8c-1.7,2-3,4.3-4.6,6.4
							c-1,1.3-1.9,1.2-3-0.1c-2.4-2.8-4.8-5.5-7.4-8.1C452.3,213.9,450.8,213.4,449.6,212.7z"/>
					</g>
					<g class="st4">
						<path class="st3" d="M183.1,235.7c0.2,3.2,2.8,4.8,5.1,5.8c4.3,1.9,8.8,3.3,13.4,4.5c7.3,2,14.7,3.2,21.8,5.5
							c4.1,1.3,7.5,4.5,11.4,6.5c3.3,1.6,6.8,2.8,10.2,3.8c4,1.3,8.2,2.1,12.2,3.4c3.1,1,4.6,5,3.8,8.7c-0.3,1.6-0.5,3.3-0.7,4.9
							c-1,9.7-2.8,19.2-7.7,27.7c-1.3,2.3-3.4,4.3-5.5,6c-3.5,2.8-4.9,6.5-6,10.6c-1.2,4.5-2.3,9-3.9,13.3
							c-1.6,4.2-5.5,6.8-11.1,4.6c-5-2-9.5-4.7-12.7-9.3c-3.3-4.8-4.2-10.1-3.7-15.8c0.8-8.7,1.7-17.4-0.5-25.9
							c-1.1-4.4-4.3-7.7-8.1-10.2c-3.3-2.2-6.7-4.4-10.1-6.5c-1.6-1-2.4-2.2-0.9-3.9c0.5-0.6,0.7-1.4,1.3-1.9
							c3.4-2.5,3.8-5.5,1.9-9.2c-2.2-4.2-4-8.7-8.2-11.3c-4.7-2.9-9.9-2.4-15-1.7c-4.4,0.7-8.6,0-12.4-2c-3.4-1.9-4.2-5.7-4.5-9.4
							c-0.2-3,0.2-6-0.2-9c-0.9-6.8,1.4-12.6,4.5-18.3c1.5-2.7,3-5.3,4.3-8.1c0.6-1.4,1-3.3,0.6-4.7c-0.2-0.8-2-1.8-3.1-1.8
							c-3.2,0-6.4,0.6-9.7,0.9c-6.1,0.4-11.2-2.1-16-5.4c-2.5-1.7-2.7-5.8,0.7-7.5c4.7-2.3,9-5.4,13.2-8.5c4.5-3.4,9.1-3.4,14.3-2.2
							c5,1.2,8.8,4.4,13,6.9c6.6,3.8,13.5,3.3,19.3-0.9c6.1-4.4,12.4-3.5,19-3.4c0.4,0,0.9,0.3,1.1,0.6c1.7,2.4,3.5,4.7,6.4,5.8
							c0.1,0-0.2,1.6-0.6,2.1c-1.5,1.6-1.9,3.3-0.7,5.1c1.6,2.5,3.1,2.1,5.9,1.7c4-0.6,8.2-0.3,12.3-0.1c1.2,0.1,2.4,0.9,3.5,1.5
							c5.6,3.1,7,6.1,5.1,12c-0.8,2.5-2.2,5-3.7,7.2c-2.3,3.7-5.7,5.6-10.2,5.3c-8.5-0.6-14.9,3.3-20,9.5c-1.4,1.7-2.6,3.7-3.8,5.7
							c-2.2,3.8-5.5,5.7-9.8,6.1C193.9,234.9,188.6,235.3,183.1,235.7z"/>
					</g>
					<g>
						<path class="st3" d="M247.9,168.1c1.7-2.3,3-4.7,4.9-6.6c6.1-6,13.7-7.8,21.8-6.3c6.7,1.2,12.5,4.7,17.8,9.1
							c1.5,1.2,1,2.3,0.4,3.6c-2.1,4.1-6,6.2-9.8,8.2c-4.7,2.6-9.5,5.1-14.6,7c-3.9,1.4-8.2,1.6-12.3,0.3c-2.3-0.7-2.1-3.3-2.9-5.1
							c-1.1-2.4-2.2-4.7-3.4-7C249.3,170.3,248.8,169.5,247.9,168.1z"/>
					</g>
				</g>
			</g>
		</g>
	</g>
	<g>
		<path class="st3" d="M344.4,344.3l14.9,10.5l12.3-17.6l-13.7-9.6C353.9,333.5,349.3,339,344.4,344.3z"/>
		<path class="st5" d="M381.9,250.6c0-75.1-61.1-136.1-136.1-136.1c-24.3,0-47.1,6.5-66.8,17.7l6.3,14.6
			c17.8-10.4,38.4-16.5,60.5-16.5c66.3,0,120.3,54,120.3,120.3s-54,120.3-120.3,120.3s-120.3-54-120.3-120.3
			c0-19.2,4.6-37.2,12.6-53.3l-15-5.2c-8.5,17.8-13.4,37.6-13.4,58.5c0,75.1,61.1,136.1,136.1,136.1c38.8,0,73.8-16.4,98.6-42.5
			c4.9-5.2,9.5-10.7,13.6-16.7C373,305.7,381.9,279.2,381.9,250.6z"/>
	</g>
	<g>
		<g class="st0">
			<path class="st6" d="M195.4,189.7c-2.1-2.3-7.9-0.4-13,4.2c-5.1,4.6-7.5,10.2-5.5,12.5c2.1,2.3,7.9,0.4,13-4.2
				S197.5,192,195.4,189.7z"/>
		</g>
		<g>
			<g>
				<path class="st7" d="M182.7,196.6c0,0-46.7-7.6-57.6-19.7c-10.9-12-10-30.6,2-41.6c12-10.9,30.6-10,41.6,2
					C179.6,149.4,182.7,196.6,182.7,196.6z M155.1,146.6c-4.7-5.2-12.8-5.6-18.1-0.9c-5.2,4.7-5.6,12.8-0.9,18.1
					c4.7,5.2,12.8,5.6,18.1,0.9C159.5,159.9,159.9,151.8,155.1,146.6z"/>
			</g>
		</g>
	</g>
	<path class="st8" d="M356.4,358.9l71.4,50.1l2.7-2.6c6-5.9,10.8-12.9,14.3-20.6l1.3-2.8l-71.4-50.1L356.4,358.9z"/>
	<path class="st9" d="M351.2,252.2c0-58.9-47.7-106.6-106.6-106.6c0,99,0,110.6,0,210.2C303.5,355.7,351.2,311,351.2,252.2z"/>
	<path class="st10" d="M408.1,168c0-1.3-1.1-2.4-2.4-2.4s-2.4,1.1-2.4,2.4c0,1.3,1.1,2.4,2.4,2.4C407.1,170.3,408.1,169.3,408.1,168
		z"/>
	<path class="st10" d="M224,89c0-0.9-0.7-1.6-1.6-1.6c-0.9,0-1.6,0.7-1.6,1.6s0.7,1.6,1.6,1.6S224,89.9,224,89z"/>
	<path class="st10" d="M62.7,195.2c0-1.2-1-2.2-2.2-2.2s-2.2,1-2.2,2.2s1,2.2,2.2,2.2S62.7,196.4,62.7,195.2z"/>
	<path class="st10" d="M80.3,244.9c0-1-0.8-1.8-1.8-1.8s-1.8,0.8-1.8,1.8s0.8,1.8,1.8,1.8C79.4,246.7,80.3,245.9,80.3,244.9z"/>
	<path class="st10" d="M132.9,367.2c0-1-0.8-1.8-1.8-1.8s-1.8,0.8-1.8,1.8s0.8,1.8,1.8,1.8C132.1,369,132.9,368.2,132.9,367.2z"/>
	<path class="st10" d="M45.4,297.2c0-1-0.8-1.8-1.8-1.8s-1.8,0.8-1.8,1.8s0.8,1.8,1.8,1.8C44.5,299,45.4,298.2,45.4,297.2z"/>
	<path class="st10" d="M417.1,263.7c0-1-0.8-1.8-1.8-1.8s-1.8,0.8-1.8,1.8s0.8,1.8,1.8,1.8C416.3,265.5,417.1,264.7,417.1,263.7z"/>
</g>
</svg>
