<svg xmlns="http://www.w3.org/2000/svg" viewBox="0 0 2480.74 1696.95"><path fill="#574F5E" stroke="#574F5E" d="M971.5 60.84c.44-6.71 6.52-12.52 13.3-12.36 143.9.03 287.82 0 431.73 0 5.35.07 10.37 3.94 12.11 8.96.98 2.6.69 5.41.72 8.12l.01 252.6c-152.62.02-305.25 0-457.88 0-.06-9.03-.06-18.08-.02-27.13.07-76.72.02-153.46.03-230.2m15.27 2.91c.03 79.78-.05 159.56.04 239.34 22.24-.23 44.49.11 66.72-.15 35.33-.24 70.67-.04 106-.1 84.83.01 169.66-.04 254.5.02.07-79.68.04-159.35 0-239.03-120.18-.02-240.36.03-360.53-.03-22.25-.12-44.49-.02-66.73-.05z"/><path fill="#2390B7" stroke="#2390B7" d="M986.77 63.74c22.24.03 44.48-.07 66.72.05-.14 41.08 0 82.16-.05 123.23.05 38.63-.13 77.27.1 115.9-22.24.27-44.49-.07-66.73.16-.09-79.78-.01-159.56-.04-239.34m18.47 16.94a12.7 12.7 0 00-.03 5.05c9.9.07 19.82-.03 29.73.02.2-1.69.2-3.39 0-5.08-9.9-.04-19.8-.03-29.7.01m-.14 8.42c-.1 1.54-.1 3.08.02 4.63 9.96.21 19.93.17 29.9 0a43.2 43.2 0 00-.02-4.62c-9.96-.26-19.94-.2-29.9-.01m.04 7.96c-.17 1.65-.15 3.31.03 4.97 9.92-.25 19.84-.2 29.77 0 .21-1.66.25-3.34.03-5-9.94.05-19.88-.04-29.83.03z"/><path fill="#30A0C8" stroke="#30A0C8" d="M1053.5 63.8c120.17.05 240.35 0 360.54.02.03 79.68.06 159.35-.02 239.03-84.83-.06-169.66-.01-254.5-.03-35.32.08-70.66-.13-105.99.1-.22-38.63-.04-77.27-.1-115.9.06-41.08-.08-82.15.06-123.23m65.8 54c-.05 11.87-.03 23.74-.01 35.61 73.45.01 146.9.03 220.35 0-.02-11.87-.01-23.73 0-35.6-73.45 0-146.9.04-220.34-.02m.02 49c-.14 11.81.07 23.65-.1 35.47 27.28.28 54.59.04 81.89.12h138.53c-.02-11.85-.02-23.7 0-35.54-73.45-.03-146.88.07-220.32-.06m-.01 49.07c-.06 11.87-.04 23.74-.02 35.6 73.46 0 146.91.12 220.37-.05-.06-11.83-.03-23.66-.03-35.5-73.43-.1-146.88 0-220.32-.05zM1005.24 80.68c9.9-.04 19.8-.05 29.7-.01.2 1.69.2 3.4 0 5.08-9.91-.05-19.82.05-29.73-.02a12.7 12.7 0 01.03-5.05z"/><path fill="#30A0CA" stroke="#30A0CA" d="M1005.1 89.1c9.96-.2 19.94-.25 29.9 0 .09 1.54.1 3.09.02 4.63-9.97.17-19.94.21-29.9 0-.11-1.55-.12-3.1-.02-4.63z"/><path fill="#30A0C8" stroke="#30A0C8" d="M1005.14 97.06c9.95-.07 19.89.02 29.83-.02.22 1.65.18 3.33-.03 5-9.93-.22-19.86-.26-29.77 0-.18-1.67-.2-3.33-.03-4.98z"/><path fill="#9ED76C" stroke="#9ED76C" d="M1119.29 117.78c73.45.06 146.89.01 220.34.03-.01 11.86-.02 23.72 0 35.59-73.45.03-146.9.01-220.35 0-.02-11.87-.04-23.75 0-35.62z"/><path fill="#7FCCE0" stroke="#7FCCE0" d="M1119.31 166.77c73.44.13 146.87.03 220.32.06-.02 11.84-.02 23.69 0 35.54H1201.1c-27.3-.08-54.6.16-81.9-.12.18-11.82-.03-23.66.11-35.48zM1119.3 215.84c73.44.04 146.89-.05 220.33.05-.01 11.84-.04 23.67.02 35.5-73.46.17-146.91.06-220.37.06-.02-11.87-.04-23.74.02-35.6z"/><path fill="#574F5E" stroke="#574F5E" d="M680.85 278.75c11.34-3.74 20.31-12 28.46-20.41-.09 19.68-1.36 39.48-5.74 58.72-3.11 12.97-7.42 26.12-15.89 36.66-5.68 7.2-14.42 12.4-23.78 12.2-67.92.04-135.85.12-203.77.03h-.7c-.1 40.22.17 80.46-.13 120.68-9.83.25-19.67.24-29.48.01-.38-6.96-.08-13.94-.11-20.92l-1.07-.1c-1.43-9.23-9.46-17.09-18.9-17.54-6.03-.15-12.07-.06-18.1-.06-7.8 0-15.16 5.23-17.98 12.45-1.91 4.45-1.29 9.38-1.37 14.1-.01 11.73 0 23.47-.02 35.22-.3 12.75 5.4 25.16 14.15 34.26 5.32 5.56 12.07 10.2 19.81 11.38 1.85 2.73 1.49 6.11 1.47 9.26-.12 12.62.11 25.26-.1 37.88-7.03.27-14.06.14-21.08.1-7.6-9.15-15.8-17.93-21.75-28.3a118.73 118.73 0 01-16.68-62.2c.01-60.57-.1-121.13.05-181.7 8.74 9.25 17.43 18.55 26.4 27.59.1-14.12 3.88-28.27 11.5-40.2 14.13-22.75 40.67-37.4 67.52-36.53H652.6c9.45-.08 19.19.68 28.25-2.58zM1771.91 282.2c4.5-2.04 9.51-2.44 14.41-2.27 71.58.02 143.16-.02 214.74.02 27.24.24 53.7 16.47 66.09 40.77a72.53 72.53 0 018.01 28.48c.37 7.31.14 14.65.2 21.97v136.3c-.05 8.6.3 17.26-.87 25.82a115.23 115.23 0 01-17.17 47.74c-6.62 10.35-15.12 19.27-22.85 28.76-5.8 6.7-11.17 13.82-17.26 20.25-.2-23.12-.2-46.26-.01-69.38l3.23-.44-.69-.69c11.25-2.57 20.13-11.18 25.8-20.9 3.95-6.8 6.38-14.59 6.31-22.5-.02-14.13.03-28.27-.02-42.4-.06-9.54-8.33-18.1-17.83-18.53a498.7 498.7 0 00-18.1-.03c-9.81.29-18.44 8.83-18.9 18.62-.21 6.57-.03 13.15-.07 19.73h-30.47c-.03-29.04.01-58.08-.02-87.1a44.36 44.36 0 00-13.58-31.7c-7.53-7.26-17.7-11.86-28.16-12.33-46.64-.24-93.27-.03-139.9-.13a90.5 90.5 0 00-6.7.16c-3.32.12-6.6.77-9.8 1.65-11.88 3.32-21.38 11.75-29.7 20.5.04-15.22.81-30.49 3.28-45.53 2.08-12.39 5.1-24.78 10.68-36.1 4.28-8.51 10.34-16.88 19.35-20.74z"/><path fill="#30A0C8" stroke="#30A0C8" d="M963.76 291.1c2.56-.32 5.14-.26 7.7-.07-.03 9.05-.03 18.1.03 27.13-.1 12.08.04 24.15-.03 36.23-12.62.4-24.81 7.68-30.73 18.88-7.38 13.11-5.1 30.72 5.33 41.55 8.3 8.97 21.37 13.27 33.36 10.64 8-1.58 15.3-6.1 20.52-12.34 9.75 9.34 19.09 19.1 28.7 28.58.77.7 1.58 1.34 2.41 2.01-2.53 2.9-5.4 5.44-8.2 8.06 1.6 6.98 3.5 13.9 4.94 20.92a705.54 705.54 0 01-13.14 7.6c-5.41-4.86-10.51-10.06-15.88-14.95-4.3 1.58-9.07 2.1-13.25 3.72-2.5 6.71-4.1 13.76-6.27 20.58-5.16.24-10.33.27-15.48-.02-1.85-6.33-3.7-12.64-5.57-18.95-.4-.85-.49-2.24-1.65-2.37-3.95-1-7.91-1.98-11.76-3.36-5.64 4.92-10.8 10.35-16.38 15.34a683.98 683.98 0 01-13.19-7.6c1.54-7.4 3.62-14.68 5.15-22.08-3.25-2.87-6.2-6.03-9.18-9.16-6.42 1.53-12.85 3.07-19.24 4.72l-2.77.51c-2.53-4.39-5.04-8.77-7.62-13.12 5.06-5.8 10.71-11.06 15.73-16.89-1.45-3.86-2.22-7.92-3.31-11.88-7.07-2.85-14.74-4.27-21.92-6.9.03-5.01.06-10.03 0-15.03 7.09-2.55 14.48-4.23 21.6-6.66 1.64-3.84 1.95-8.25 3.6-12.16-4.97-5.87-10.66-11.1-15.68-16.9 2.6-4.33 5.02-8.76 7.6-13.09 7.37 1.6 14.68 3.52 22.03 5.23 2.95-3.15 5.9-6.31 9.16-9.17-1.51-7.43-3.65-14.72-5.11-22.16 4.37-2.5 8.72-5.08 13.13-7.54 5.56 5.02 10.8 10.4 16.42 15.35 4.04-1.55 8.27-2.44 12.44-3.55 2.68-6.82 4.3-14.1 6.51-21.1z"/><path fill="#FFDA82" stroke="#FFDA82" d="M849.26 301.4c2.07-2.7 3.03-6.13 5.2-8.77 1.7 2.9 3.03 6.03 4.94 8.8 2.78 1.93 6.04 3.06 8.77 5.1-2.92 1.68-6.03 3.03-8.81 4.92-1.9 2.84-3.18 6.03-5.1 8.86-1.69-2.9-3.1-5.98-4.92-8.8-2.82-1.96-6.06-3.24-8.89-5.2 2.93-1.64 6.02-3.03 8.81-4.9z"/><path fill="#91BFCF" stroke="#91BFCF" d="M971.49 318.17c152.63-.02 305.26.01 457.88-.02v55.33c.07 6.84-5.94 13.1-12.8 13.17-16.82.1-33.65-.02-50.48.07-37.4-.1-74.8.02-112.2-.07-35.65-.1-71.3-.09-106.94 0-25.34.08-50.68 0-76.02.04h-62.78l-1.18.03c-7.66-.13-15.34.1-23-.09-6.43-.25-12.06-5.87-12.41-12.28-.4-6.66.18-13.32-.1-19.96.07-12.08-.07-24.15.03-36.22z"/><path fill="#FEDA81" stroke="#FEDA81" d="M1501.46 344.16c1.74-2.84 3.08-5.92 4.91-8.72 1.67 3 3.12 6.12 5 8.99 2.87 1.77 5.92 3.27 8.9 4.89-2.95 1.9-6.28 3.17-9.09 5.25-1.8 2.83-3.12 5.92-4.93 8.74-1.68-2.92-3.12-5.98-4.91-8.82-2.86-1.98-6.1-3.33-9.03-5.16 3.04-1.73 6.3-3.12 9.15-5.17z"/><path fill="#0982AF" stroke="#0982AF" d="M940.73 373.27c5.92-11.2 18.11-18.47 30.73-18.88.28 6.64-.3 13.3.1 19.96.34 6.41 5.98 12.03 12.42 12.28 7.65.18 15.32-.04 22.99.09-6.71 3.3-13.86 5.57-20.66 8.67-13.6 6.05-27.37 11.94-40.25 19.43-10.43-10.83-12.7-28.44-5.33-41.55z"/><path fill="#30A0C8" stroke="#30A0C8" d="M798.1 361.65c.96-3.33 6.28-3.3 7.08.11.58 4.43.05 8.92.25 13.38 4.17.19 8.36-.13 12.54.1 1.7-.1 3.01 1.4 3.38 2.94.42 2.1-1.31 4.35-3.47 4.4-4.17.2-8.36-.13-12.54.13-.15 4.44.46 8.92-.18 13.34-.84 3.3-5.98 3.42-7.01.2-.68-4.5.08-9.1-.31-13.63-4.46-.15-8.93.27-13.36-.15-3.36-.87-3.41-6.24-.04-7.12 4.44-.48 8.93 0 13.39-.2.32-4.5-.23-9.02.27-13.5z"/><path fill="#EBEBEB" stroke="#EBEBEB" d="M1768.3 364.07c3.2-.88 6.48-1.53 9.8-1.65 4.44 1.51 9.16.74 13.75.9 12.02-.08 24.04.11 36.06-.12-.17 7.61-.1 15.22-.06 22.83.04 5.5-.5 11.08.73 16.51 3.64 18.05 7.12 36.13 10.93 54.15.35 1.77.47 3.58.45 5.4-4.05 30.01-8.05 60.03-12.05 90.05-1.36 7.1 4.09 14.03 11.04 15.27-.32 9.58-.12 19.18-.13 28.76-7.4-.68-14.56-2.51-21.79-4.05a37.33 37.33 0 008.43 20.39c3.26 4.06 7.6 7.07 12.1 9.65l1.16.57c.31 19-.28 38 .3 56.99 13.7.4 27.45-.27 41.15.33l.11.82c-13.04.07-26.07 0-39.1.03a71.17 71.17 0 01-27.74-4.66c-21.67-8.18-38.58-27.71-43.46-50.37-2.7-11.34-1.24-23.05-1.64-34.57.09-43.04-.01-86.09.06-129.13 2.31 2.95 6.25 4.97 10.01 3.67 3.88-1.37 7.7-3.15 11.9-3.32 5.74-.59 11.5.74 16.69 3.17 4.2 2.11 9.78.12 11.78-4.12 2.26-4.1.52-9.75-3.62-11.91-12.03-6.34-26.8-6.97-39.47-2.17-2.78.94-5.41 2.4-7.35 4.63.04-29.35.12-58.7-.04-88.05m20.8 118.1c-5.45 1.83-8.9 8-7.53 13.6 1.15 5.69 6.97 9.91 12.74 9.14 6.89-.5 12.08-8.01 10.11-14.64-1.52-6.46-9.11-10.57-15.32-8.1z"/><path fill="#FFF" stroke="#FFF" d="M1778.1 362.42a90.5 90.5 0 016.7-.16c46.63.1 93.26-.1 139.9.13-4.24 1.22-8.66.59-12.97.7-27.95.08-55.89-.14-83.82.11-12.02.23-24.04.04-36.06.11-4.59-.15-9.31.62-13.74-.89z"/><path fill="#E1E1E1" stroke="#E1E1E1" d="M1924.7 362.39c10.47.48 20.63 5.08 28.16 12.33a44.36 44.36 0 0113.58 31.7c.03 29.03 0 58.06.02 87.1h30.48c.03-6.58-.15-13.15.07-19.73.45-9.78 9.08-18.33 18.89-18.61 6.02-.08 12.06-.12 18.1.02 9.5.44 17.77 9 17.83 18.52.06 14.14 0 28.28.02 42.42.07 7.9-2.36 15.69-6.3 22.5-5.68 9.7-14.56 18.32-25.8 20.9-1.14.08-2.25.18-3.34.28.02 23.78.05 47.56-.02 71.34l-.02.74c-1.93-3.3-1.21-7.19-1.29-10.8-.05-20.39.11-40.77-.05-61.15a263.3 263.3 0 00-23.72.05c.16 19.85.1 39.7.05 59.55-.03 16.12-6.5 32.23-18.22 43.39-9.36 9.76-22.29 15.65-35.6 17.48 8.88.52 17.78.1 26.67.23 17.05.08 34.1-.17 51.15.15-4.99 1-10.07.5-15.1.58-20.9.04-41.79-.07-62.69.04-4.99-.01-9.95-.72-14.92-.66-13.85.1-27.68-.09-41.51.08-.88 7.8.58 15.7-.71 23.47-.26-7.81.06-15.63-.15-23.43l-.1-.83c-13.71-.6-27.46.07-41.17-.33-.57-18.98.03-37.99-.29-56.98 8.92 3.48 19.1 4.08 28.1.51 13-4.78 22.2-17.55 23.49-31.23a139.4 139.4 0 01-51.5 4.16c.02-9.59-.18-19.19.14-28.77 5.16.13 10.33.19 15.49.07 7.72-.33 14.05-7.74 13.74-15.36.05-4.92-3.29-9.57-7.9-11.16-2.2-.7-4.53-.62-6.77-.75-.2-22.42.02-44.84-.1-67.25.06-6.95-6.23-12.85-13.08-12.83l-.37 1.97a26.5 26.5 0 00-.45-5.4c-3.8-18.02-7.3-36.1-10.93-54.15-1.24-5.43-.69-11.01-.73-16.52-.03-7.6-.1-15.21.06-22.82 27.93-.25 55.87-.03 83.81-.11 4.32-.12 8.74.51 12.98-.71m-33.93 82.7c-4.29.79-8.5 2.1-12.4 4.02a8.97 8.97 0 00-4.94 8.26 9.12 9.12 0 007.77 8.76c2.94.56 5.6-1.14 8.3-2.05a30.75 30.75 0 0123.46 1.43c4.12 2.26 9.77.64 12-3.5 2.52-4.08.97-10-3.24-12.28-9.4-5-20.51-6.46-30.95-4.63m2.3 36.75c-5.68 1.37-9.76 7.4-8.67 13.2.77 5.87 6.58 10.53 12.5 9.9 6.2-.29 11.4-6.27 10.8-12.45-.16-7.1-7.84-12.67-14.63-10.65z"/><path fill="#363636" stroke="#363636" d="M459.43 365.95h.7c.09 40.51-.03 81.02.05 121.54-10.46-.06-20.93-.05-31.4-.01-.05-7.29.24-14.59-.14-21.86l1.07.1c.03 6.97-.27 13.96.1 20.92 9.82.23 19.66.24 29.49 0 .3-40.23.03-80.47.13-120.7z"/><path fill="#FFF" stroke="#FFF" d="M460.13 365.95c67.92.09 135.85.01 203.77-.03V563.9c-.15 16.35.3 32.73-.24 49.07-.36-1.46-.83-2.9-.88-4.39.07-44.14 0-88.29.03-132.43-.04-9.45.15-18.9-.24-28.33v-.64c.49-19.6.12-39.21.24-58.82-.05-7.06.14-14.13-.08-21.19-23.54-.27-47.09.08-70.62-.16-22.41-.37-44.84-.05-67.25-.16-21.2.09-42.39-.15-63.57.12-.28 36.37-.03 72.76-.12 109.15-.1 3.57.26 7.17-.13 10.73-.36 1.58-2.27 1.48-3.52 1.52-9.58-.09-19.17 0-28.74-.04v-.86c10.47-.04 20.93-.05 31.4 0-.08-40.5.04-81.02-.05-121.53z"/><path fill="#E1E1E1" stroke="#E1E1E1" d="M461.29 366.98c21.19-.27 42.38-.03 63.57-.12 22.41.11 44.84-.2 67.25.16.39 7.46 2.09 14.75 3.15 22.14 2.08 14.1 4.43 28.17 6.5 42.28.61 5.23 1.97 10.38 2.24 15.64-3.55 3.27-8.88 3.79-13.15 5.9-.16 1.2-.33 2.41-.43 3.64-.18-1.18-.4-2.35-.6-3.51-7.2 0-13.68 6.33-13.45 13.6-.03 30.84 0 61.68-.01 92.52-.13 1.8.48 4.3 2.7 4.39 4.1.2 8.24-.16 12.37-.17.23 9.87.03 19.74.11 29.6-16.46 1.67-33.29.86-49.3-3.47-1.27-.31-2.54-.56-3.79-.81 1.1 11.56 7.51 22.53 17.4 28.73 10.5 6.93 24.44 7.65 35.89 2.66-.61 19.56.13 39.16-.4 58.72-9.6.4-19.23-.02-28.85.16-5.02.2-10.16-.67-15.08.71-3.77 1.04-7.72.66-11.58.74-42.39.03-84.77.24-127.16.16v-.79c20.98.17 41.96.04 62.94.07 6.02-.1 12.06.36 18.06-.31a63.51 63.51 0 01-39.7-21.18c-9.03-10.6-14.77-24.17-15.3-38.14-.3-21.54.26-43.1-.27-64.61-8.17-.53-16.39-.2-24.57-.2-.19 14.82-.08 29.65-.05 44.47a5.88 5.88 0 01-1.12 3.67c-.28-15.97-.1-31.96-.08-47.93-.6-.08-1.77-.2-2.35-.27-7.75-1.18-14.5-5.82-19.81-11.38-8.75-9.1-14.46-21.51-14.15-34.26.02-11.75 0-23.48.01-35.22.09-4.72-.54-9.65 1.37-14.1 2.83-7.22 10.19-12.46 17.99-12.45 6.03 0 12.06-.1 18.09.06 9.44.45 17.48 8.31 18.9 17.54.38 7.27.1 14.57.15 21.86v.86c9.57.04 19.15-.04 28.74.04 1.25-.04 3.15.07 3.51-1.52.4-3.56.03-7.16.14-10.73.09-36.4-.16-72.78.12-109.15m43.46 69.6a11.31 11.31 0 00-7.78 11.34c.03 5.92 5.52 11.1 11.44 10.79 8.36 0 16.73.02 25.09-.02 5.84.18 11.07-4.94 11.17-10.76.5-5.91-4.48-11.62-10.43-11.82-7.3-.2-14.62 0-21.92-.08-2.53.03-5.12-.2-7.57.54m23.55 39.31a12.1 12.1 0 005.16 23.37c7.04-.31 12.63-7.66 10.97-14.53-1.26-7.03-9.5-11.66-16.13-8.84z"/><path fill="#EBEBEB" stroke="#EBEBEB" d="M592.1 367.02c23.54.23 47.1-.11 70.63.16.22 7.06.03 14.13.08 21.2-.12 19.6.25 39.2-.24 58.81-.4-3.86-2.35-7.72-5.84-9.64-2.89-1.77-6.39-1.52-9.63-1.52-7.34.12-14.68-.11-22.01.09-5.68.19-10.54 5.4-10.46 11.06-.3 5.83 4.63 11.36 10.5 11.48 7.57.15 15.16-.04 22.73.07 3.1 0 6.46.18 9.14-1.65 3.28-1.93 5.08-5.58 5.57-9.25.4 9.44.2 18.88.24 28.33-.03 44.14.04 88.29-.03 132.43.05 1.5.52 2.93.88 4.39-1.3 25.2-17.46 48.77-40.08 59.8a72.85 72.85 0 01-28.99 7.4c-15.35.12-30.72-.11-46.06.11-1.3 1.38-1 3.36-1.04 5.1.05 3.9.1 7.8 0 11.7-.03 2.57-.34 5.32 1.12 7.62l.1.21c-10.05-.1-20.11-.21-30.16.15-21.15-.12-42.3.23-63.44-.23-15.48-.07-30.96.12-46.43.01-.02-8.07-.01-16.14 0-24.2 42.38.08 84.77-.13 127.15-.16 3.86-.08 7.82.3 11.59-.74 4.9-1.38 10.05-.51 15.07-.7 9.62-.19 19.24.24 28.86-.17.52-19.56-.22-39.16.39-58.72l.28-.13c4.16-2.17 8.13-4.78 11.37-8.18 5.93-6.2 9.51-14.45 10.5-22.92-7.44 1.47-14.78 3.44-22.35 4.13-.07-9.87.12-19.74-.11-29.6 6.94-1.3 12.4-8.19 11.27-15.3-4.11-30.51-8.14-61.03-12.28-91.53.1-1.23.27-2.45.43-3.65 4.28-2.11 9.6-2.63 13.15-5.9-.27-5.26-1.63-10.4-2.25-15.63-2.06-14.12-4.4-28.18-6.5-42.3-1.05-7.38-2.75-14.67-3.14-22.13m43.36 108.46c-6.42 1.5-10.65 8.84-8.56 15.14 1.66 6.13 8.68 10.07 14.78 8.22 6.28-1.56 10.37-8.73 8.43-14.93-1.57-6.15-8.54-10.2-14.65-8.43z"/><path fill="#FFDA82" stroke="#FFDA82" d="M1577.4 378.52c2.7 4.5 4.95 9.28 7.68 13.78 4.48 2.89 9.36 5.2 14.02 7.82-4.39 2.44-8.83 4.8-13.22 7.24-1.07.5-1.44 1.69-1.98 2.62-2.15 3.95-4.28 7.9-6.48 11.82-2.6-4.69-4.93-9.55-7.82-14.04-4.5-2.7-9.21-5.03-13.75-7.64 4.56-2.56 9.26-4.9 13.76-7.59 2.88-4.48 5.22-9.33 7.79-14z"/><path fill="#0978A3" stroke="#0978A3" d="M1006.97 386.72l1.18-.03c.47 9.43-2.08 19.12-8.21 26.43a36.3 36.3 0 01-20.52 12.34c-12 2.64-25.06-1.67-33.37-10.64 12.9-7.5 26.65-13.38 40.26-19.43 6.8-3.1 13.95-5.37 20.66-8.67z"/><path fill="#2993BA" stroke="#2993BA" d="M1008.15 386.7h62.78c.05 3.7.11 7.4.06 11.11-6.26 2.33-12.8 3.78-19.1 5.93-1.69.3-1.78 2.09-2.09 3.41-.7 3.68-1.92 7.21-2.92 10.8 4.62 5.28 9.8 10.05 14.34 15.39-1.9 4.68-4.9 8.91-7.45 13.3-7.01-1.42-13.87-3.5-20.89-4.83-.63.62-1.23 1.26-1.83 1.9-.83-.67-1.64-1.31-2.42-2-9.6-9.49-18.94-19.25-28.69-28.59 6.13-7.3 8.68-17 8.21-26.43z"/><path fill="#0978A3" stroke="#0978A3" d="M1070.93 386.7c25.34-.05 50.68.03 76.02-.05-2.74 26.35-5.66 52.68-8.44 79.03-5.64-.01-11.26-.02-16.89 0-.02 3.18-.02 6.38.03 9.58 52.51-.06 105.02-.03 157.53-.01 0-3.2 0-6.37.05-9.55-5.63-.06-11.26-.02-16.88-.02-2.78-26.35-5.61-52.68-8.46-79.03 37.4.09 74.8-.04 112.2.07 6.1 3.58 13.1 5.14 19.4 8.32 13.83 5.65 27.12 12.5 40.47 19.2a533.76 533.76 0 0168.76 44.08c2.5 1.74 1.65 5.08 1.79 7.69-.04 35.22 0 70.44-.03 105.67-.06 6.22.2 12.45-.2 18.67-30.76.29-61.52 0-92.29.14-13.02-.2-26.06.19-39.06-.18-4.46-2.04-8.33-5.17-12.62-7.53a325.96 325.96 0 00-66.7-29.74 230.93 230.93 0 00-25.93-7.02c-18.43-4.55-37.36-6.58-56.25-7.98-10.72-.13-21.44-.14-32.15-.02-7.36-.05-14.63 1.16-21.94 1.74a323.82 323.82 0 00-101.86 28.78c-7.38 3.1-14.4 6.92-21.33 10.89-12.94 7.02-25.05 15.46-36.95 24.1-8.3 6.56-16.65 13.08-24.27 20.43-5.85 4.52-10.44 10.42-16.05 15.19-.48-8.87.04-17.77-.09-26.65-.13-25.07-.08-50.14-.02-75.21-.17-7.26.35-14.54-.23-21.77-8.28-.47-16.59-.05-24.88-.15-26.11-.01-52.22-.06-78.32-.02-10.2-.19-20.4.26-30.57-.2 5.94-6.5 12.44-12.5 18.59-18.82 3.4-3.68 7.69-6.41 10.99-10.22 14.84-13.22 30.26-25.87 46.56-37.29 1.07-.49.87-1.7 1.04-2.66 6.4-1.65 12.82-3.2 19.25-4.72 2.97 3.13 5.92 6.3 9.17 9.16-1.53 7.4-3.61 14.68-5.15 22.08 4.37 2.58 8.76 5.11 13.2 7.6 5.57-4.98 10.73-10.42 16.38-15.34 3.84 1.38 7.8 2.36 11.76 3.36 1.16.13 1.24 1.52 1.64 2.37 1.87 6.31 3.72 12.63 5.57 18.95 5.15.3 10.32.26 15.48.02 2.18-6.82 3.78-13.87 6.27-20.57 4.18-1.63 8.94-2.15 13.25-3.73 5.37 4.9 10.47 10.09 15.88 14.95 4.42-2.47 8.78-5.03 13.15-7.6-1.45-7.02-3.34-13.93-4.95-20.92 2.8-2.62 5.68-5.17 8.2-8.06.6-.64 1.2-1.28 1.83-1.9 7.02 1.33 13.88 3.4 20.9 4.82 2.55-4.38 5.55-8.61 7.44-13.3-4.54-5.33-9.72-10.1-14.34-15.37 1-3.6 2.23-7.13 2.93-10.8.3-1.33.4-3.13 2.07-3.42 6.3-2.15 12.85-3.6 19.11-5.93.06-3.71 0-7.42-.06-11.12z"/><path fill="#789EAB" stroke="#789EAB" d="M1146.95 386.65c35.64-.09 71.29-.1 106.93 0 2.85 26.35 5.7 52.68 8.47 79.03-41.28.03-82.56.03-123.84 0 2.78-26.35 5.7-52.68 8.44-79.03z"/><path fill="#30A0C8" stroke="#30A0C8" d="M778.39 432.76c.66-3.47 6.1-3.63 7.08-.26.61 4.5-.24 9.06.45 13.56 4.13.02 8.28-.19 12.42.03 2.54.04 4.32 3.4 2.85 5.51-.72 1.32-2.22 1.94-3.66 1.94-3.93.18-7.86-.06-11.78.04-.34 4.53.3 9.12-.31 13.63-1.19 3.11-5.97 3-7.02-.15-.55-4.49.16-9.03-.33-13.53-4.48-.13-9 .45-13.44-.26-3.21-.98-3.18-6.07.03-7.04 4.5-.63 9.07.17 13.59-.38.1-4.36-.27-8.74.12-13.1z"/><path fill="#BEB8C2" stroke="#BEB8C2" d="M504.75 436.57c2.45-.74 5.04-.51 7.57-.54 7.3.09 14.61-.11 21.92.08 5.95.2 10.93 5.9 10.43 11.82-.1 5.82-5.33 10.94-11.17 10.76-8.36.04-16.73.02-25.09.02-5.92.31-11.4-4.87-11.44-10.79-.38-5 3.03-9.87 7.78-11.35zM614.63 447.18c-.08-5.66 4.78-10.87 10.46-11.06 7.33-.2 14.67.03 22.01-.09 3.24 0 6.74-.25 9.63 1.51 3.5 1.93 5.43 5.79 5.84 9.65v.63c-.5 3.68-2.29 7.32-5.57 9.26-2.68 1.82-6.05 1.64-9.14 1.65-7.57-.1-15.16.08-22.73-.08-5.87-.11-10.8-5.64-10.5-11.47z"/><path fill="#FFDA82" stroke="#FFDA82" d="M1645.44 438.85c3.06 5.23 5.71 10.68 8.83 15.87 5.16 3.19 10.65 5.87 15.95 8.85-5.27 3.04-10.79 5.68-15.93 8.9-3.1 5.18-5.86 10.54-8.74 15.83-3.12-5.23-5.71-10.76-8.9-15.93-5.18-3.14-10.64-5.75-15.85-8.82 5.26-2.91 10.63-5.66 15.82-8.7 3.15-5.2 5.94-10.64 8.82-16z"/><path fill="#BEB8C2" stroke="#BEB8C2" d="M1775.69 447.49c12.67-4.8 27.44-4.17 39.47 2.17 4.14 2.16 5.88 7.8 3.62 11.9-2 4.26-7.58 6.25-11.78 4.13-5.2-2.43-10.95-3.75-16.68-3.17-4.2.17-8.03 1.96-11.9 3.32-3.77 1.3-7.7-.72-10.02-3.67a10.3 10.3 0 01-.06-10.05 16.55 16.55 0 017.35-4.63zM1890.77 445.1c10.44-1.83 21.56-.37 30.95 4.63 4.21 2.29 5.76 8.2 3.25 12.28-2.24 4.14-7.9 5.76-12 3.5a30.75 30.75 0 00-23.46-1.43c-2.7.91-5.37 2.61-8.31 2.05a9.12 9.12 0 01-7.76-8.76 8.97 8.97 0 014.93-8.26c3.9-1.93 8.11-3.24 12.4-4.01z"/><path fill="#30A0C8" stroke="#30A0C8" d="M715.5 451.26c.78-3.22 5.92-3.4 6.97-.26.73 4.52-.16 9.15.4 13.7 4.33.14 8.7-.23 13.03.13 2.8.44 3.73 4.36 1.77 6.26-1.12 1.21-2.9.96-4.36 1.05-3.5-.02-6.99-.1-10.48 0-.4 4.54.26 9.13-.31 13.65-1.14 3.2-6.3 3.1-7.08-.26-.61-4.42.16-8.9-.22-13.34-4.19-.23-8.37.06-12.54-.12-1.72.1-3.05-1.44-3.4-2.99-.4-2.12 1.37-4.4 3.56-4.35 4.13-.19 8.28.18 12.42-.15.2-4.44-.44-8.92.23-13.32z"/><path fill="#BEB8C2" stroke="#BEB8C2" d="M576.38 466.72c-.24-7.28 6.24-13.6 13.45-13.61.19 1.16.41 2.33.6 3.51 4.13 30.5 8.16 61.03 12.27 91.53 1.12 7.12-4.33 14-11.27 15.3-4.13.01-8.26.38-12.37.17-2.22-.09-2.83-2.59-2.7-4.4.01-30.83-.02-61.67.01-92.5zM1840.33 460.13c6.85-.02 13.14 5.88 13.08 12.82.12 22.42-.1 44.84.1 67.25 2.24.14 4.57.07 6.77.76a11.96 11.96 0 017.9 11.15c.31 7.63-6.02 15.03-13.74 15.37-5.16.12-10.33.05-15.49-.07-6.95-1.24-12.4-8.17-11.04-15.27 4-30.02 8-60.04 12.05-90.05l.37-1.96z"/><path fill="#91BFCF" stroke="#91BFCF" d="M1121.62 465.67c5.63-.01 11.25 0 16.89.01 41.28.03 82.56.03 123.84 0 5.62 0 11.25-.04 16.88.02-.05 3.18-.05 6.36-.05 9.55-52.51-.02-105.02-.05-157.54.01-.04-3.2-.04-6.4-.02-9.59z"/><path fill="#544C5B" stroke="#544C5B" d="M528.3 475.88c6.63-2.82 14.87 1.81 16.13 8.84 1.66 6.87-3.93 14.22-10.97 14.53a12.1 12.1 0 01-5.16-23.37z"/><path fill="#574F5E" stroke="#574F5E" d="M635.47 475.48c6.11-1.77 13.08 2.28 14.65 8.43 1.94 6.2-2.15 13.37-8.43 14.93-6.1 1.85-13.12-2.09-14.79-8.22-2.08-6.3 2.15-13.63 8.57-15.14zM1789.1 482.18c6.2-2.48 13.8 1.63 15.32 8.09 1.97 6.63-3.22 14.14-10.1 14.64-5.78.77-11.6-3.45-12.75-9.14-1.37-5.6 2.08-11.77 7.53-13.6z"/><path fill="#544C5B" stroke="#544C5B" d="M1893.07 481.85c6.8-2.02 14.47 3.55 14.63 10.64.6 6.19-4.6 12.17-10.8 12.45-5.92.64-11.73-4.02-12.5-9.9-1.09-5.79 2.99-11.81 8.67-13.19z"/><path fill="#0978A3" stroke="#0978A3" d="M1534.2 491.8c3.14 2.57 5.7 5.73 8.89 8.25 5.96 5.24 10.79 11.57 16.6 17 3.58 3.23 6.49 7.1 9.67 10.73a505.82 505.82 0 01104.19 184.97 500.54 500.54 0 019.54 34.43c1.3 5.11 1.93 10.43 3.9 15.37l-100.4 100.43c-4.63 4.6-9.26 9.19-13.82 13.84l-37.53-37.55c-1.87-1.83-3.6-3.79-5.67-5.39.24-15.03 0-30.09.13-45.12.07-4.23-.76-8.42-2.03-12.44a39.91 39.91 0 00-9.73-16.11c-4.21-4.55-10.12-6.96-14.44-11.37-7.38-6.96-11.18-16.79-13-26.57-2.72-14.22-3.48-28.94-8.77-42.56-2.28-5.65-4.59-11.7-9.48-15.63-7.86-6.64-20.67-6.85-28.28.28-.7-1.83-1.62-3.6-2.9-5.08-8.03-9.69-16.37-19.12-25.45-27.83a33.9 33.9 0 01-3.26-3.48c2.84-.95 5.88-.42 8.83-.5 22.23-.02 44.45 0 66.68 0 15.33-.11 30.7.22 46.02-.2.27-34.7-.01-69.41.11-104.12.19-10.44-.39-20.92.2-31.34z"/><path fill="#30A0C8" stroke="#30A0C8" d="M721.06 523.37c.93-3.31 6.24-3.24 7.1.09.45 4.33-.17 8.7.23 13.05l.4.37c4.33.3 8.71-.31 13.05.21 3.29.93 3.25 6.06.05 7.05-4.47.6-9 .1-13.48.24-.4 4.5.21 9.03-.3 13.5-.98 3.47-6.46 3.17-7.11-.3-.35-4.38.06-8.78-.2-13.16-4.43-.22-8.9.3-13.3-.22-3.42-.84-3.51-6.14-.14-7.12 4.43-.5 8.9.02 13.36-.14.48-4.52-.19-9.08.34-13.57z"/><path fill="#0978A3" stroke="#0978A3" d="M743.5 610.91c11.98-20.04 24.44-39.9 39.2-58.04 22.45-.02 44.9-.02 67.36-.01 20.32.1 40.65-.22 60.96.14.53 19.28.11 38.6.24 57.9 0 24.3-.02 48.6.03 72.89.01 1.97-.28 4.02-1.4 5.71a326.33 326.33 0 00-47.97 129.86c-2.45 19.82-4.22 39.85-2.75 59.82L731.42 751.4a159.65 159.65 0 00-37.16-27.7c.81-.9 1.93-1.65 2.37-2.82 2.94-10.6 6.54-21.02 10.24-31.37 1.8-5.6 4.5-10.86 6.4-16.4 8.52-21.46 18.9-42.11 30.23-62.2z"/><path fill="#363636" stroke="#363636" d="M406.23 555.43l2.35.27c-.02 15.97-.2 31.96.09 47.93-7.13-.28-14.28-.05-21.42-.1l-.73-.86c7.02.04 14.05.17 21.08-.1.21-12.62-.02-25.26.1-37.88.02-3.15.38-6.53-1.47-9.26z"/><path fill="#D2D2D2" stroke="#D2D2D2" d="M409.83 555.5c8.18 0 16.4-.34 24.58.19.52 21.51-.04 43.07.25 64.6.55 13.98 6.28 27.54 15.3 38.15a63.51 63.51 0 0039.72 21.18c-6 .67-12.05.22-18.06.31-20.99-.03-41.97.1-62.94-.07l-.01-76.23a5.89 5.89 0 001.11-3.67c-.03-14.82-.13-29.65.05-44.47zM1991.3 560a263.3 263.3 0 0123.74-.05c.15 20.38-.01 40.76.04 61.15.08 3.6-.64 7.5 1.29 10.8.32 16.2.05 32.5.12 48.75l-1.13.14c-17.05-.32-34.1-.06-51.14-.14-8.9-.14-17.8.29-26.68-.23 13.31-1.83 26.24-7.72 35.6-17.48 11.71-11.17 18.2-27.28 18.22-43.4.06-19.84.1-39.7-.05-59.54z"/><path fill="#363636" stroke="#363636" d="M2016.4 559.82l3.34-.29.7.7c-1.11.14-2.2.28-3.24.43-.2 23.13-.2 46.26 0 69.39l-.81 1.1c.07-23.77.04-47.55.02-71.33z"/><path fill="#F4F4F4" stroke="#F4F4F4" d="M538.45 588.77c1.26.25 2.52.5 3.79.81 16.01 4.33 32.84 5.14 49.3 3.47.26 8.98-.6 18.03.48 26.97l-.28.14c-11.45 4.99-25.39 4.27-35.89-2.66-9.88-6.2-16.3-17.17-17.4-28.73z"/><path fill="#FFF" stroke="#FFF" d="M591.54 593.05c7.57-.69 14.9-2.65 22.34-4.12-.98 8.47-4.56 16.72-10.49 22.91-3.24 3.41-7.21 6.02-11.37 8.18-1.07-8.94-.22-17.99-.48-26.97zM1817.04 592.12c7.22 1.54 14.39 3.37 21.78 4.05.03 7.27-.05 14.55.06 21.83-.13 1.44.23 3.35-1.32 4.16-4.5-2.57-8.83-5.6-12.1-9.65a37.34 37.34 0 01-8.42-20.39z"/><path fill="#F4F4F4" stroke="#F4F4F4" d="M1838.82 596.17c17.24 1.91 34.76.36 51.5-4.15-1.3 13.68-10.5 26.45-23.5 31.23-9 3.57-19.18 2.97-28.1-.52l-1.16-.57c1.55-.81 1.2-2.73 1.32-4.17-.11-7.27-.03-14.55-.06-21.82z"/><path fill="#FECB4E" stroke="#FECB4E" d="M124.09 603.55c87.72.02 175.45.1 263.16-.03 7.14.06 14.29-.17 21.42.11V680.65c0 8.06-.01 16.13.01 24.2.03 85.36-.07 170.72.05 256.07h-42C315.23 909.3 263.6 857.78 212.05 806.2c-3.33-3-5.82-6.9-9.6-9.38-2.59-3.39-5.78-6.5-9.89-7.93-6.04-2.44-13.02-1.23-18.32 2.39a19.5 19.5 0 002.74-17.42c-2.62-8.18-11-14.22-19.65-13.65-3.84.12-7.48 1.65-10.65 3.74 2.03-3.37 3.42-7.2 3.3-11.19.04-7.6-4.96-14.77-11.83-17.8a19.85 19.85 0 00-14.03-.69c-.08-43.56-.01-87.13-.03-130.7m141 89.96c-3.12 9.13-6.27 18.24-9.51 27.33-12.54-.1-25.08-.1-37.62 0 10.05 7.36 19.95 14.9 29.94 22.32-3.92 11.18-7.8 22.36-11.68 33.55 9.8-6.78 19.59-13.6 29.41-20.34 9.71 6.88 19.6 13.5 29.32 20.37l-11.03-33.53c10.22-7.55 20.6-14.88 30.84-22.4-12.76-.07-25.51-.03-38.27-.01-3.22-10.06-6.68-20.04-9.82-30.11-1.17.4-1.15 1.84-1.59 2.82z"/><path fill="#EBEBEB" stroke="#EBEBEB" d="M1443.97 664.36c7.62-7.13 20.43-6.91 28.29-.28 4.88 3.93 7.2 9.98 9.48 15.63 5.28 13.62 6.05 28.34 8.76 42.56 1.82 9.78 5.62 19.61 13 26.57 4.32 4.4 10.23 6.82 14.44 11.37a39.93 39.93 0 019.74 16.11c-.76 4.4 1.1 8.64 1.12 13.03-12.88-.23-25.75-.06-38.62-.09-5.33.06-10.66-.2-15.97.21 3.9 2.32 8.07 4.68 10.44 8.75 4.57 7.24 3.75 17.38-2.08 23.68-2.8 3.44-7.1 4.95-11.11 6.43 4.76 1.21 9.38 3.54 12.27 7.68 5.45 7.1 5.17 17.95-.83 24.66-2.69 3.39-6.85 4.9-10.65 6.62 3.93 1.29 7.9 3.05 10.6 6.33 5.32 5.95 6.28 15.3 2.44 22.28a19.35 19.35 0 01-16.24 10.22c-5 .18-10-.18-14.98.18 4.03 2 8.21 4.32 10.55 8.36 4.43 6.86 4.09 16.62-1.15 22.96-2.06 2.7-5.03 4.42-7.82 6.24 6.14.57 12.43-.67 18.47.92-5.05.7-10.16.36-15.22.44l-32.95.03c-5.67-.07-11.41.36-16.95-1.02a21.9 21.9 0 01-14.93-13.83c-1.5-3.94-1.29-8.21-1.26-12.34V805.22c.01-2.37-.18-4.77.28-7.1 1-5 5.73-9.03 10.86-9.03 14.38-.03 28.76-.03 43.14 0 5-4.3 7.68-10.69 8.38-17.15 1.26-10.7-.93-21.41-3.41-31.78-3.75-15.15-9.2-29.82-13.25-44.89-1.09-4.27-2.23-8.6-2.14-13.03.06-6.58 2.43-13.32 7.3-17.88z"/><path fill="#FFF9F8" stroke="#FFF9F8" d="M547.49 685.39c.04-1.74-.26-3.72 1.04-5.1.26 8.13.08 16.28.08 24.42-1.46-2.3-1.16-5.05-1.12-7.62.1-3.9.05-7.81 0-11.7z"/><path fill="#EBEBEB" stroke="#EBEBEB" d="M1881.14 680.83c13.82-.16 27.66.03 41.5-.07 4.98-.07 9.94.65 14.93.66 20.9-.1 41.8 0 62.7-.04 5.02-.08 10.1.43 15.09-.58l1.13-.15c.02 8.04.02 16.09 0 24.14 2.75-.03 5.52-.04 8.3-.03-.06 13.25-5.96 26.01-15.12 35.44-10.3 10.8-24.09 17.77-38.45 21.43a99.67 99.67 0 01-56.02-2.31c-12.55-4.38-24.32-11.58-33.01-21.72-7.89-9.05-12.66-20.78-12.75-32.83 3.63 0 7.26-.04 10.9.03l.1-.49c1.28-7.77-.18-15.68.7-23.48z"/><path fill="#FFF" stroke="#FFF" d="M265.08 693.52c.44-.98.42-2.41 1.59-2.82 3.14 10.07 6.6 20.05 9.82 30.1 12.76 0 25.52-.05 38.27.03-10.25 7.5-20.62 14.84-30.84 22.39l11.03 33.53c-9.71-6.88-19.6-13.49-29.32-20.37-9.82 6.75-19.6 13.56-29.41 20.33 3.88-11.18 7.76-22.37 11.68-33.54-9.99-7.43-19.9-14.96-29.94-22.31 12.54-.1 25.08-.11 37.62-.01 3.23-9.09 6.38-18.2 9.5-27.33z"/><path fill="#7FCCE0" stroke="#7FCCE0" d="M408.68 704.85c15.47.1 30.95-.08 46.43-.02 21.14.47 42.3.12 63.44.24 10.05-.36 20.1-.25 30.17-.15 23.12-.34 46.25-.05 69.38-.14a159.3 159.3 0 0176.16 18.94 159.66 159.66 0 0137.16 27.69c42.59 42.58 85.16 85.17 127.75 127.77 10.96 10.96 21.92 21.93 32.9 32.89 7.58 7.81 15.7 15.15 22.72 23.49a114.2 114.2 0 0125.77 64.18c.3 6.54.65 13.2-.82 19.65a48.82 48.82 0 01-22.82 31.57 49.03 49.03 0 01-24.56 6.75c-33.17-.03-66.33 0-99.5-.01-4.95-.06-9.94.27-14.86-.59a43.15 43.15 0 01-27.9-17.35c17.42-.04 34.85-.01 52.27-.02V933.69c-.1-6.01.21-12.03-.19-18.03a55.9 55.9 0 00-23.27-40.91 55.74 55.74 0 00-32.28-10.37H614.21a21.93 21.93 0 00-21.65 23.17 21.96 21.96 0 0013.86 19.5c4.44 1.9 9.35 1.4 14.05 1.47 15.93.03 31.85-.1 47.78.06-4.68 2.05-9.38 4.67-12.17 9.13-6.72 9.48-4.21 24.03 5.46 30.57 2.54 1.9 5.6 2.9 8.66 3.71-5.79 1.5-11.3 4.74-14.45 9.95-5.96 9.05-4.01 22.37 4.55 29.11 2.79 2.38 6.28 3.66 9.74 4.7-4.84 1.37-9.56 3.74-12.72 7.76-5.13 6.03-6.36 14.88-3.56 22.23a22.05 22.05 0 0017.63 13.82c4.42.44 8.87.06 13.3.21l.1.4c.12 44.6-.03 89.2.06 133.8h-.52c-127.63-.05-255.27-.01-382.9-.03.03-64.41-.07-128.82.06-193.24-22.18 21.95-44.12 44.13-66.24 66.13-11.3 10.9-28.23 15.31-43.47 11.69a47.34 47.34 0 01-18.18-8.58c-3.52-2.68-6.5-6-9.65-9.08-22.33-22.34-44.66-44.68-67-67-1.12-1.13-2.31-2.21-3.05-3.62 4.73 2.37 9.05 5.52 14.01 7.46a71.53 71.53 0 0029.1 5.58c8.6-.04 17.22.01 25.83-.03.14-7.44.05-14.88.05-22.33a865615.06 865615.06 0 01245.84 0c-.12-85.35-.02-170.71-.05-256.07m53.7 1.49c-.03 18.33.1 36.68-.07 55.02-8.56 78.34-17.25 156.67-25.85 235.01-3.92 36.27-8.17 72.52-11.86 108.81 12.3 6.03 24.54 12.19 36.82 18.23 10.4 5.04 20.65 10.56 31.15 15.27 22.55-11.1 45.03-22.41 67.6-33.48-3.3-32.86-7.2-65.67-10.7-98.52-8.87-80.23-17.68-160.48-26.53-240.72-.97-6.7-.42-13.5-.56-20.24v-39.4c-20-.06-40-.1-60 .02z"/><path fill="#9ED76C" stroke="#9ED76C" d="M1785.56 705.68c10.4-1.27 20.9-.86 31.36-.92h52.52c.1 12.05 4.86 23.8 12.74 32.83 8.7 10.15 20.47 17.35 33.02 21.72a99.66 99.66 0 0056.02 2.32c14.36-3.66 28.15-10.64 38.45-21.44 9.16-9.42 15.06-22.18 15.11-35.43h66.34c27.51-.1 54.97 9.22 76.66 26.17 6.95 5.24 12.88 11.64 19.05 17.74 24.18 24.22 48.42 48.38 72.57 72.63-20.98-.06-41.96 0-62.95-.03-35.41 0-70.83-.02-106.24.01h-160.36c.05 53.5.02 107 .01 160.5.02 35.37-.02 70.74.02 106.1-.02 28.7 0 57.38 0 86.07-56.6-.05-113.2.06-169.8-.06h-.54c.16-101.97-.04-203.92.1-305.89-22.48 22.39-44.87 44.86-67.31 67.29-5.63 5.59-11.2 11.22-16.84 16.81-4.22-4.35-8.56-8.57-12.81-12.89-21.9-21.78-43.67-43.67-65.52-65.49-3.53-3.6-7.2-7.03-10.58-10.75L1687 762.55c11.2-10.83 21.47-22.76 34.23-31.84a135.69 135.69 0 0164.34-25.03z"/><path fill="#30A0C8" stroke="#30A0C8" d="M462.38 706.34c20-.13 40-.08 60-.03v39.4c.14 6.75-.4 13.54.56 20.25 8.85 80.24 17.66 160.49 26.53 240.72 3.5 32.85 7.4 65.66 10.7 98.52-22.57 11.07-45.04 22.38-67.6 33.48-10.5-4.71-20.76-10.23-31.15-15.27-12.29-6.04-24.52-12.2-36.82-18.23 3.69-36.3 7.94-72.54 11.86-108.8 8.6-78.35 17.3-156.68 25.85-235.02.17-18.34.04-36.69.07-55.02z"/><path fill="#0978A3" stroke="#0978A3" d="M1187.08 717.13c32.59.35 65.24 11.24 90.7 31.78a158.2 158.2 0 0125.45 25.38 150.9 150.9 0 0127.2 56.8c1.14 6.51 3.04 12.92 3.22 19.57.61 4.86.73 9.74.7 14.65-44.42-.06-88.85 0-133.29-.02-4.9.11-9.85-.39-14.72.34-.2 40.97-.03 81.96-.08 122.94.17 8.3-.36 16.63.28 24.93-10.74-.18-21.53-1.1-32.04-3.44-12.46-3.02-24.82-6.97-36.08-13.16a140.99 140.99 0 01-36.72-26.87c-27.79-27.11-43.53-65.9-43.48-104.62 49.32-.08 98.64-.06 147.96-.01l.15-.54c.34-1.05.56-2.14.54-3.23-.04-43.36-.03-86.73-.01-130.1.05-4.8-.28-9.62.22-14.4z"/><path fill="#30A0C8" stroke="#30A0C8" d="M1122.17 731.77c19.9-9.6 42-14.68 64.1-14.54.1 49.21-.04 98.43.06 147.63l-.14.54a54460 54460 0 00-147.97.01 147.45 147.45 0 0123-79.43 148.69 148.69 0 0160.95-54.2z"/><path fill="#EBEBEB" stroke="#EBEBEB" d="M124.12 734.26a19.85 19.85 0 0114.02.69c6.88 3.04 11.88 10.2 11.84 17.8.12 3.98-1.28 7.82-3.3 11.2 3.17-2.1 6.8-3.63 10.65-3.75 8.65-.57 17.03 5.47 19.64 13.65a19.5 19.5 0 01-2.73 17.42c5.3-3.62 12.28-4.83 18.32-2.4 4.11 1.45 7.3 4.55 9.88 7.94 3.26 5.57 4 12.65 1.2 18.55-1.47 3.54-4.4 6.09-7.05 8.74-2.49 2.53-5.04 5-7.53 7.55 4.53-2.05 9.64-3.38 14.57-1.96 10.4 2.29 17.5 13.96 14.43 24.23-1.36 6-6.4 9.9-10.5 14.08-14.09 14.1-28.16 28.22-42.29 42.28-1 1.12-2.64 2.08-2.43 3.82.12 15.6-.07 31.22.05 46.82 0 7.45.09 14.9-.05 22.34-8.61.03-17.23-.02-25.84.02a71.53 71.53 0 01-29.09-5.58c-4.96-1.94-9.28-5.08-14-7.46-3.7-3.5-7.66-6.77-11.02-10.62-10.2-11.5-16.54-26.53-17.24-41.9.41-1.7.92-3.4.95-5.16-.05-33.68-.03-67.36-.02-101.02-.22-5.15.68-10.42-.86-15.42.5-5 3.18-9.6 6.73-13.08l43.52-43.54c2.3-2.31 5.05-4.2 8.15-5.24z"/><path fill="#FFF" stroke="#FFF" d="M1528.8 789.35c-.01-4.4-1.89-8.63-1.12-13.03 1.26 4.01 2.09 8.2 2.02 12.44-.13 15.03.11 30.09-.13 45.12-1.22-2.6-.6-5.53-.7-8.28-.04-12.08.12-24.17-.07-36.25z"/><path fill="#DBDBDB" stroke="#DBDBDB" d="M1474.2 789.47c5.32-.41 10.65-.15 15.98-.21 12.87.03 25.74-.14 38.61.1.2 12.07.04 24.16.08 36.24.1 2.75-.52 5.68.7 8.28.21 12.65.05 25.3.1 37.95-.11 8.26.6 16.66-1.47 24.76-4.7 21.3-21.42 39.43-42.31 45.75-3.83 1.18-7.79 2.23-11.77 2.44-6.04-1.6-12.32-.35-18.47-.92 2.8-1.82 5.76-3.55 7.82-6.24 5.24-6.34 5.58-16.1 1.15-22.96-2.34-4.04-6.52-6.36-10.55-8.35 4.98-.37 9.98-.01 14.98-.2a19.35 19.35 0 0016.24-10.21c3.84-6.98 2.88-16.33-2.45-22.28-2.7-3.28-6.66-5.04-10.58-6.33 3.8-1.72 7.96-3.23 10.64-6.62 6-6.7 6.28-17.56.83-24.66-2.89-4.14-7.51-6.47-12.27-7.68 4.02-1.48 8.3-2.99 11.1-6.43 5.84-6.3 6.66-16.44 2.1-23.68-2.38-4.07-6.54-6.43-10.45-8.75z"/><path fill="#FDFAF7" stroke="#FDFAF7" d="M65.72 796.12c1.54 5 .64 10.27.86 15.42 0 33.66-.03 67.34.03 101.02-.04 1.75-.55 3.45-.96 5.16-.5-33.83-.07-67.7-.21-101.52.15-6.7-.34-13.42.28-20.09z"/><path fill="#F5C24D" stroke="#F5C24D" d="M202.45 796.81c3.78 2.48 6.27 6.39 9.6 9.38 51.55 51.59 103.18 103.1 154.68 154.73H162.9c-.11-15.6.08-31.21-.04-46.82-.21-1.74 1.42-2.7 2.43-3.82 14.12-14.06 28.2-28.19 42.3-42.28 4.08-4.18 9.12-8.07 10.48-14.07 3.07-10.28-4.03-21.95-14.43-24.24-4.93-1.42-10.04-.1-14.56 1.96 2.48-2.55 5.03-5.02 7.53-7.55 2.64-2.65 5.57-5.2 7.04-8.74 2.8-5.9 2.07-12.98-1.2-18.55z"/><path fill="#7FCCE0" stroke="#7FCCE0" d="M2090.2 821.28c35.42-.03 70.84-.01 106.25 0-87.53 87.69-175.2 175.24-262.78 262.89l-3.79 3.72c-.04-35.37 0-70.74-.02-106.1 45.06-45.1 90.16-90.18 135.23-135.27 8.35-8.44 16.87-16.7 25.12-25.24M1961.8 982.9c.18 13.5.12 27 .04 40.5a5942.51 5942.51 0 0040.47-40.49c-13.51-.05-27.01-.01-40.5-.01z"/><path fill="#30A0C8" stroke="#30A0C8" d="M2196.45 821.27c20.99.04 41.97-.03 62.95.04 29.5-.08 58.98.02 88.47-.06.39 17.36.03 34.77.18 52.14-.25 13.53-.04 27.06-.1 40.6-.04 10.26.03 20.54-.04 30.82-19.77-.03-39.53-.01-59.29-.02-6.46-.15-12.7 3.44-16.13 8.85-4.7 7.08-4 17.24 1.65 23.61 2.8 3.38 6.89 5.35 11.06 6.53a19.1 19.1 0 00-12.67 7.51 19.99 19.99 0 00-1.29 21.72 18.92 18.92 0 0013.6 9.35c-5.82 1.43-11.3 4.91-13.99 10.4-4.66 8.6-1.74 20.46 6.64 25.66 7.66 5.06 17.22 2.48 25.82 3.16-7.5 2.01-13.66 8.47-14.56 16.27-1.3 8.04 2.9 16.64 10.24 20.28a19.22 19.22 0 0010 2.15c12.97-.03 25.94 0 38.91 0 .32 37.76 0 75.54.17 113.33-40.98.3-81.98.04-122.96.12-27.35-.04-54.7.06-82.06-.05-43.94-.16-87.88-.03-131.82-.08-27.11.1-54.25-.2-81.36.16v-39.81l.01-86.06 3.8-3.73c87.57-87.64 175.24-175.2 262.77-262.89zM1929.85 821.28h160.36c-8.25 8.54-16.77 16.8-25.12 25.24-45.07 45.1-90.16 90.17-135.23 135.27.01-53.5.04-107-.01-160.5z"/><path fill="#EBEBEB" stroke="#EBEBEB" d="M1529.57 833.88c2.06 1.6 3.8 3.56 5.67 5.4l37.53 37.54c4.56-4.65 9.19-9.25 13.81-13.85 3.39 3.72 7.05 7.16 10.58 10.75 21.84 21.82 43.63 43.71 65.52 65.5-22.7 22.78-45.47 45.5-68.22 68.25-8.68 8.64-22.63 11.23-33.85 6.34-6.94-2.7-11.74-8.61-16.93-13.66-13.85-13.86-27.71-27.7-41.56-41.58l-16.23-16.23c20.89-6.32 37.62-24.46 42.31-45.75 2.08-8.1 1.35-16.5 1.47-24.76-.05-12.65.11-25.3-.1-37.95zM598.99 870.75c3.99-4 9.57-6.33 15.22-6.37h132.42a55.75 55.75 0 0132.28 10.37 55.9 55.9 0 0123.27 40.9c.4 6.01.09 12.03.2 18.04v106.05c-17.43 0-34.86-.02-52.28.02-21.8-.04-43.6 0-65.4.01-4.44-.15-8.89.23-13.3-.21a22.05 22.05 0 01-17.64-13.82c-2.8-7.35-1.57-16.2 3.56-22.23 3.16-4.02 7.89-6.39 12.72-7.75-3.46-1.05-6.95-2.33-9.74-4.71-8.56-6.74-10.5-20.06-4.55-29.1 3.16-5.22 8.67-8.46 14.45-9.96-3.05-.81-6.12-1.8-8.66-3.71-9.67-6.54-12.18-21.09-5.45-30.57 2.78-4.47 7.48-7.08 12.16-9.13-15.92-.15-31.85-.03-47.78-.06-4.7-.06-9.6.42-14.04-1.47a21.96 21.96 0 01-13.87-19.5 22 22 0 016.43-16.8z"/><path fill="#066385" stroke="#066385" d="M1186.34 865.63c4.88-.73 9.81-.23 14.73-.34 44.43.01 88.86-.04 133.3.02.19 26.94-7.37 53.88-21.4 76.87a148.38 148.38 0 01-46.44 47.68c-23.64 15.42-51.8 23.53-79.98 23.64-.64-8.3-.12-16.63-.28-24.93.04-40.98-.12-81.97.07-122.94z"/><path fill="#EBEBEB" stroke="#EBEBEB" d="M2347.95 913.98c.06-13.53-.15-27.06.1-40.58 16.28 17.2 32.5 34.46 48.75 51.7 2.9 3.12 5.97 6.1 8.65 9.44a46.41 46.41 0 019.85 27.39c.04 28.98.07 57.97-.02 86.96a53.1 53.1 0 01-18 38.2 52.7 52.7 0 01-35.83 13.2c-4.53-.03-9.04-.02-13.55-.01-12.97 0-25.94-.03-38.9 0a19.2 19.2 0 01-10.01-2.15c-7.34-3.63-11.53-12.24-10.24-20.28.9-7.8 7.06-14.26 14.56-16.26-8.6-.7-18.16 1.9-25.82-3.17-8.38-5.2-11.3-17.06-6.64-25.66 2.7-5.48 8.17-8.97 13.99-10.4a18.93 18.93 0 01-13.6-9.35 19.99 19.99 0 011.29-21.71 19.1 19.1 0 0112.67-7.52c-4.17-1.18-8.25-3.15-11.06-6.53-5.65-6.37-6.35-16.53-1.65-23.61 3.42-5.4 9.68-9 16.13-8.85 19.76.01 39.52 0 59.3.02 10.26-.1 20.54.18 30.82-.15-5.78-6.23-11.96-12.06-17.9-18.12-4.3-4.18-8.35-8.63-12.89-12.56z"/><path fill="#DBDBDB" stroke="#DBDBDB" d="M2347.95 913.98c4.54 3.93 8.58 8.38 12.88 12.56 5.95 6.06 12.13 11.89 17.9 18.12-10.27.33-20.55.04-30.82.15.07-10.28 0-20.55.04-30.83z"/><path fill="#0978A3" stroke="#0978A3" d="M1675.49 952.1c5.63-5.59 11.21-11.22 16.84-16.81-1.93 8.54-2.65 17.3-4.6 25.85a503.52 503.52 0 01-47.88 138.71c-6.44 12.64-13.7 24.84-20.95 37.03-8.79 13.1-17.38 26.36-27.17 38.75-42.19.29-84.39 0-126.58.14-2.06 0-4.1-.03-6.13-.1-.27-42 0-83.99-.14-125.98-.2-4.17 3.32-7.03 5.18-10.4 14.51-23.5 26.34-48.7 34.6-75.07a13.14 13.14 0 013.46-5.65l41.56 41.58c5.19 5.04 9.98 10.95 16.93 13.66 11.22 4.9 25.17 2.3 33.85-6.34 22.75-22.75 45.52-45.47 68.22-68.26 4.24 4.32 8.59 8.54 12.8 12.9z"/><path fill="#EBEBEB" stroke="#EBEBEB" d="M1961.82 982.9c13.49 0 26.99-.04 40.5.01a5942.51 5942.51 0 01-40.47 40.5c.08-13.5.14-27.01-.03-40.51z"/><path fill="#0978A3" stroke="#0978A3" d="M684.7 1039.77c21.8 0 43.6-.05 65.4 0a43.16 43.16 0 0027.9 17.34c4.92.86 9.9.53 14.87.59 33.16 0 66.32-.02 99.49.02a49.04 49.04 0 0024.56-6.76c2.48 5.32 6.52 9.65 9.9 14.4 5.57 7.42 11.8 14.33 17.86 21.35 4.42 4.66 9.24 8.94 13.47 13.8-40.45.46-80.91-.1-121.35.3-.45 45.33.02 90.7-.24 136.03-3.41-2.44-6.1-5.7-9.19-8.5-5.1-4.31-9.08-9.73-13.97-14.27-11.68-12.69-23-25.74-33.4-39.5-4.2-6.18-9.23-11.74-13.15-18.1-4.16-5.4-7.42-11.4-11.4-16.9-7.47-12.26-15.08-24.45-21.43-37.34-4.6-7.93-8.05-16.43-12.2-24.59-5.27-11.96-10.37-24-14.73-36.32-6.88-.44-13.8-.28-20.7-.1-.35 19.54-.04 39.1-.15 58.66.02 22.97-.04 45.94.02 68.9a52.26 52.26 0 01-.34 4.8c-.72-7.58-.17-15.21-.31-22.81.03-33.43-.04-66.85 0-100.27-.04-3.46.39-7.02-.82-10.34l-.1-.39z"/><path fill="#2596C0" stroke="#2596C0" d="M1104.16 1064.9c5.2-.77 10.59.22 15.52 1.97 7.2 2.56 12.56 8.83 20.16 10.44 6.5 1.36 13.68.8 19.45-2.71 5.48-3.25 10.6-7.44 16.97-8.84 8.8-1.93 18.43-1.62 26.61 2.44 5.05 2.44 9.2 6.53 14.59 8.34 7.68 2.52 16.63 1.88 23.42-2.73 5.14-3.49 10.49-7.04 16.69-8.28 3.47-.7 7.08-1.2 10.62-.68 3.6.86 5.22 5.75 2.85 8.6-2.17 3.17-6.4 2.07-9.64 2.76-6.43.78-11.3 5.36-16.72 8.43-8.64 4.8-19.17 5.61-28.67 3.22-5.64-1.44-10.48-4.8-15.25-8-6.21-4.16-14.23-4.95-21.4-3.28-5.78 1.34-10.18 5.51-15.3 8.25-8.96 4.94-19.94 5.46-29.65 2.61-6.46-1.75-11.35-6.56-17.27-9.4-4.1-2.12-8.79-1.97-13.2-2.69-4.7-1.53-4.39-9.02.22-10.44z"/><path fill="#0978A3" stroke="#0978A3" d="M1421.04 1093.72c1.02 1.19.75 2.76.67 4.22.4 24.12.07 48.27.18 72.4 0 14 .05 27.99-.21 41.97 2.65.72 5.43.43 8.17.46 24.56-.03 49.13.04 73.7-.04 18.81.21 37.64-.3 56.44.21-11.31 12.87-23.94 24.54-36.7 35.97a507.82 507.82 0 01-64.47 48.3c-5.37 3.31-10.7 6.68-16.06 10-9.86-9.94-24.16-14.68-37.99-14.46-13.6-.16-27.66 4.45-37.4 14.18-5.75 5.65-9.58 13.5-9.47 21.66.1 6 0 12-.01 18-3.45 1.07-6.9 2.11-10.34 3.16.07-12.15.01-24.3.05-36.43-11.26-8.29-22.96-15.98-34.37-24.06-34.87-24.24-69.85-48.31-104.62-72.67-63.27 43.8-126.38 87.79-189.61 131.64-3.57-2.22-7.77-2.92-11.6-4.53-10.98-4.37-22.03-8.58-32.76-13.55-12.1-5.77-24.2-11.57-35.94-18.08-8.63-5.23-17.5-10.08-26.03-15.46-11.7-7.84-23.47-15.6-34.67-24.14-1.87-1.5-4.82-2.83-4.38-5.7.06-42.81-.07-85.62.07-128.42 8.27-.52 16.57-.06 24.86-.2 33.44-.04 66.89.04 100.33-.04 2.74.07 5.83-.49 8.17 1.35 9.78 6.7 20.1 12.6 30.71 17.88 48.01 24.7 102.3 36.77 156.23 35.68 14.37-.74 28.82-1.4 43.02-4.06 9-1.22 17.91-3 26.7-5.27 39.8-9.38 77.65-26.75 111.01-50.36 14.93-10.16 28.45-22.22 41.63-34.53a51.94 51.94 0 004.7-5.08z"/><path fill="#2596C0" stroke="#2596C0" d="M1104.16 1097.9c7.1-.9 14.45.94 20.62 4.5 4.35 2.4 8.13 5.94 13 7.34 7.44 2.2 16 1.65 22.57-2.73 5.23-3.4 10.51-7.07 16.72-8.4 8.37-1.77 17.43-1.32 25.26 2.32 6.02 2.75 10.83 7.9 17.46 9.32 6.56 1.39 13.84.97 19.68-2.6 4.24-2.54 8.2-5.6 12.82-7.45a33.7 33.7 0 0115.26-2.45c3.93.38 5.97 5.66 3.55 8.7-1.71 2.74-5.3 2.23-8.06 2.57-6.25.24-11.37 4.13-16.37 7.44-9.12 6.03-20.88 6.96-31.27 4.24-5.43-1.58-10.14-4.8-14.78-7.88-6.2-4.12-14.15-4.9-21.27-3.23-7.4 1.84-12.7 7.99-19.87 10.39-8.6 2.89-18.3 3-26.86-.15-7.42-2.59-12.92-9.15-20.82-10.53-3.34-.87-7.69.47-10.13-2.6-2.43-2.86-.92-7.54 2.5-8.8z"/><path fill="#363636" stroke="#363636" d="M301.43 1173.94c127.63.02 255.27-.02 382.9.03-.05 13.34 0 26.69-.03 40.04-79.26-.21-158.53-.03-237.8-.1-48.36.03-96.7-.06-145.07.05a16680 16680 0 010-40.02zM1760.09 1173.89c56.6.13 113.19.02 169.78.06v39.82c-56.58.3-113.16.02-169.74.14-.04-13.34.04-26.68-.04-40.02z"/><path fill="#30A0C8" stroke="#30A0C8" d="M1669.3 1185.78c1.08-3.5 6.69-3.4 7.58.18.49 3.91.06 7.88.14 11.82.15.76-.35 1.97.44 2.5 4.6.41 9.24-.2 13.85.24 2.84.62 4 4.65 1.83 6.65-1.13 1.44-3.08 1.25-4.7 1.3-3.74-.04-7.47-.06-11.2-.03-.6 4.8.27 9.67-.37 14.47-1.05 3.72-7.01 3.46-7.7-.31-.4-4.7.08-9.41-.2-14.1-4.82-.3-9.7.29-14.49-.28-3.44-1.13-3.5-6.47-.01-7.6 4.8-.6 9.68.03 14.53-.28.28-4.85-.36-9.74.3-14.56z"/><path fill="#066385" stroke="#066385" d="M1929.87 1213.76c27.11-.35 54.25-.05 81.37-.15 43.94.04 87.87-.09 131.8.07.05 27.66.03 55.34.02 83.01-41.32.26-82.64.03-123.96.11h-146.63c-1.73.04-2.6 1.88-3.8 2.87-32.75 32.82-65.57 65.57-98.33 98.37-3.45 3.1-6.28 6.99-10.15 9.59-.15-64.57-.02-129.15-.06-193.72 56.58-.12 113.16.17 169.74-.15z"/><path fill="#574F5E" stroke="#574F5E" d="M301.43 1213.96c48.36-.11 96.71-.02 145.07-.05 79.27.07 158.54-.12 237.8.1 0 64.69.02 129.37 0 194.06-36.3-36.03-72.36-72.3-108.54-108.45-1.23-.97-2.1-2.84-3.84-2.82h-270.5c.02-27.6 0-55.22.01-82.84z"/><path fill="#9ED76C" stroke="#9ED76C" d="M1019 1348.23c63.23-43.85 126.35-87.84 189.61-131.64 34.77 24.36 69.75 48.43 104.62 72.67 11.42 8.08 23.11 15.77 34.37 24.06-24.43 16.65-48.6 33.7-72.91 50.52-46.8 32.54-93.65 64.98-140.4 97.58-46.41-32.09-92.78-64.25-139.07-96.5 7.77-5.78 15.9-11.08 23.78-16.7m219.17-67.05c-5.77.17-12.72 4.1-12.35 10.63.75 6.33 7.98 9.19 13.64 8.63 5.47-.39 12-4.05 11.84-10.23-.49-6.29-7.53-9.38-13.13-9.03m-68.2 20.4c-11.01.9-21.93 4.68-30.58 11.66-7.53 6.02-13.2 15.04-13.22 24.9-.22 10.65 6.38 20.35 15.03 26.08 12.62 8.42 28.74 10.53 43.43 7.55 11.21-2.3 22.08-7.83 29.35-16.83 5.34-6.6 8.22-15.44 6.51-23.88-1.43-8.45-7.1-15.6-13.99-20.44-10.54-7.38-23.83-10.06-36.53-9.04m-66.59 70.48c-4.4.54-9.05 3.12-10.48 7.56-1.24 3.36.63 7.17 3.5 9.07 5.53 3.7 13.63 3.28 18.63-1.16 2.77-2.42 3.98-6.8 1.98-10.06-2.67-4.66-8.63-6.09-13.63-5.4z"/><path fill="#30A0C8" stroke="#30A0C8" d="M1602.15 1257.28c.61-3.73 6.44-4.09 7.64-.54.82 4.81-.05 9.74.33 14.6 4.85.53 9.78-.5 14.6.34 3.56 1.18 3.18 7.03-.57 7.64-4.66.4-9.35 0-14 .15-.46 4.82.41 9.7-.32 14.5-1.11 3.76-7.2 3.36-7.71-.56-.35-4.64.02-9.3-.13-13.93-4.63-.15-9.26.22-13.87-.14-4.3-.4-4.25-7.4 0-7.82 4.61-.47 9.26.15 13.89-.18.13-4.69-.26-9.39.14-14.06zM1670.67 1266.9c.83-3.77 6.7-3.84 7.69-.12.47 4.8-.04 9.62.25 14.43 4.64.15 9.32-.24 13.97.11 3.72.57 4.28 6.28.77 7.62-4.9.88-9.96-.3-14.86.58-.05 4.65.27 9.33-.1 13.97-.83 3.63-6.48 3.96-7.6.37-.7-4.8-.03-9.72-.33-14.56-4.82-.35-9.7.32-14.47-.3-3.56-1.02-3.46-6.6.05-7.61 4.78-.62 9.65.23 14.46-.35.19-4.71-.26-9.44.17-14.14z"/><path fill="#87B85C" stroke="#87B85C" d="M1238.17 1281.17c5.6-.35 12.64 2.74 13.13 9.03.16 6.18-6.37 9.84-11.84 10.23-5.66.56-12.89-2.3-13.63-8.63-.38-6.53 6.57-10.46 12.34-10.63z"/><path fill="#FECB4E" stroke="#FECB4E" d="M1367.36 1306.93c9.75-9.73 23.82-14.33 37.42-14.18 13.83-.22 28.13 4.52 37.98 14.47a31.85 31.85 0 019.08 25.85c-1.8 6.6-5.1 12.9-10.13 17.6-9.59 9-22.83 13.42-35.85 13.56-14.2.22-29.1-4.41-39.05-14.9-3.65-3.48-5.51-8.21-8.2-12.35-.21 7.87 4.26 14.95 10 20 10.13 9.03 24 13.1 37.43 12.76 14.57-.22 29.77-5.62 39.25-17.09 3.18-3.65 4.72-8.3 6.55-12.67.17 64.65.03 129.3.08 193.95.13 4.71-.03 9.55-1.8 14-2.72 7.3-8.25 13.26-14.72 17.46a21.44 21.44 0 00-2.43-3.42l.28-.17c7.12-4.1 13.92-10.06 16.54-18.09-6.08 5.73-12.64 11.3-20.67 14.07-1.63-1.34-3.28-2.66-4.63-4.24l-.35-.4c11.3-3.28 21.87-11.28 26.13-22.49-3.73 3.4-7.13 7.23-11.52 9.83a59.16 59.16 0 01-19.1 7.9 23.5 23.5 0 01-4.95-4.94c11.54-2.27 23.18-7.21 30.67-16.64a32 32 0 004.93-8.62c-3.77 3.37-7.15 7.26-11.56 9.85a59.93 59.93 0 01-30.64 9.3l-.43.01c-1.52-1.93-3.1-3.81-4.66-5.68 12.8.11 25.97-3.17 36.16-11.16 4.87-3.9 9.04-8.9 11.1-14.84-3.7 3.38-7.02 7.24-11.37 9.83a60.6 60.6 0 01-22.67 8.66c-6.45 1.34-13.06.73-19.57.88l-1.25-.53a143.3 143.3 0 01-7.32-7.52c14.2 3.6 29.77 2.8 43-3.8 8.3-4.27 16-10.93 19.17-19.97-13.15 15.25-34.48 21.51-54.09 18.87-5.74-.57-11.16-2.53-16.67-4.03-3.84-2.5-6.83-5.97-9.9-9.31 2.46 3.66 3.3 8.05 4.36 12.26-.01 3-.32 5.98-.62 8.96l-.24.75c-3 11.12-12.06 19.66-22.39 24.18-15.15 6.82-33.2 6.61-48.29-.25-5.95-2.8-11.44-6.73-15.58-11.86-2.94-3.54-4.56-7.9-6.84-11.85-.16-1.28-.11-2.59-.1-3.83a30.46 30.46 0 017.04-21.91c8-9.64 20.24-14.96 32.5-16.46a79.62 79.62 0 0115.75.04c8.05 1.23 15.92 3.89 22.74 8.42-.08-46.87-.01-93.74-.04-140.6 0-6 .12-12 .01-18-.1-8.15 3.72-16 9.46-21.66m-7.98 49.13c4.84 13.24 18.07 21.4 31.27 24.51 15.83 3.71 33.46 1.24 46.9-8.2 5.17-3.93 10.13-8.86 12.18-15.17-3.83 3.2-7.2 6.98-11.6 9.45-19.44 11.92-45.4 12.11-65.15.8-5.25-2.89-9.5-7.12-13.6-11.39m57.05 31.15c-15.62 2.58-32.43 0-45.77-8.78-4.12-2.46-7.29-6.08-10.8-9.26 1.2 4.36 4.14 7.97 7.17 11.22 9.5 9.4 23 13.9 36.18 14.28 13.85.29 28.32-3.8 38.61-13.4 3.6-3.57 7.02-7.71 8.34-12.7-8.38 10.22-20.84 16.46-33.73 18.64m4.33 11.53c-16.8 4.03-35.43 1.68-50.03-7.82-4.14-2.44-7.33-6.06-10.86-9.25 2.56 7.71 8.87 13.62 15.69 17.73 15.26 9 34.68 9.97 51.12 3.7 10.14-3.98 19.94-11.35 23.55-21.98a55.34 55.34 0 01-29.47 17.62m-.05 12.47c-16.77 4-35.34 1.65-49.93-7.8-4.17-2.44-7.31-6.14-10.93-9.26 1.14 3.83 3.54 7.13 6.21 10.05 8.09 8.75 19.74 13.53 31.41 14.91 15.44 1.78 32.05-1.94 43.84-12.43 3.79-3.64 7.38-7.88 8.87-13a56.57 56.57 0 01-29.47 17.53m19 4.17c-20.09 13.32-48 13.55-68.42.82-4.33-2.52-7.7-6.27-11.42-9.54 2.96 8.64 10.48 14.9 18.3 19.13 14.31 7.26 31.62 8.07 46.75 2.87 10.77-3.89 21.37-11.29 25.29-22.49-3.37 3.21-6.5 6.75-10.5 9.2m3.17 10.15c-10.15 8.09-23.18 12-36.05 12.45-14.03.33-28.47-3.47-39.62-12.2-2.66-1.95-4.67-4.63-7.34-6.53 2.56 7.3 8.49 12.91 14.86 17.03 14.81 9.12 33.82 10.44 50.14 4.85 10.82-3.84 21.27-11.36 25.37-22.45-2.56 2.17-4.7 4.8-7.36 6.85m-83.4 5.53a32.37 32.37 0 007.87 11.83c9.1 8.88 21.84 13.3 34.4 13.94 13.85.65 28.37-3.09 38.97-12.34 3.84-3.53 7.53-7.64 9.04-12.74-2.47 1.92-4.45 4.38-6.93 6.28-9.88 7.8-22.43 11.78-34.91 12.34-14.73.63-30.01-3.4-41.54-12.82-2.54-1.92-4.42-4.52-6.9-6.49m0 12.51c1.65 4.5 4.52 8.49 7.92 11.85 9.29 9.02 22.3 13.36 35.06 13.93 12.68.37 25.82-2.83 36.03-10.58 4.85-3.79 9.36-8.53 11.26-14.5-3.2 2.49-5.76 5.73-9.23 7.9-20.23 13.98-48.82 14.24-69.57 1.19-4.35-2.64-7.74-6.44-11.47-9.79m-.09 12.04c1.36 4.37 4.1 8.17 7.23 11.47 7.2 7.48 17.1 11.87 27.21 13.73 14.95 2.7 31.2 0 43.74-8.87 5.18-3.93 10.14-8.85 12.17-15.18-3.7 3.05-6.9 6.72-11.1 9.14-14.68 9.28-33.26 11.62-50.01 7.44a55.72 55.72 0 01-29.24-17.73m.03 12.54a31.42 31.42 0 006.5 10.65c8.19 8.82 19.96 13.66 31.77 15.02 14.85 1.74 30.76-1.82 42.44-11.44 4.03-3.6 7.92-7.83 9.6-13.09-3.15 2.31-5.59 5.46-8.92 7.55-18.94 13.35-45.35 14.37-65.78 3.8-6-3.07-11.07-7.58-15.61-12.5m61.53 30.14c-16.88 4.09-35.67 1.77-50.32-7.84-4.05-2.48-7.25-6-10.69-9.19 2.21 7.42 8.31 13 14.61 17.14 14.9 9.25 34.03 10.63 50.47 4.92 10.82-3.83 21.32-11.43 25.19-22.6a55.38 55.38 0 01-29.26 17.57z"/><path fill="#87B85C" stroke="#87B85C" d="M1169.97 1301.57c12.7-1.02 25.99 1.66 36.53 9.04 6.88 4.83 12.56 11.99 13.99 20.44 1.7 8.44-1.17 17.29-6.51 23.88-7.27 9-18.14 14.54-29.35 16.83-14.7 2.98-30.81.87-43.43-7.55-8.65-5.73-15.25-15.43-15.03-26.08.01-9.86 5.69-18.88 13.22-24.9 8.64-6.98 19.57-10.76 30.58-11.66z"/><path fill="#FFDA82" stroke="#FFDA82" d="M749.36 1317.18l8.25-15.11c3.05 5.33 5.73 10.88 8.94 16.12 5.25 3.2 10.74 6.04 16.2 8.9-5.31 3.15-10.89 5.81-16.15 9.02-3.23 5.25-5.94 10.82-9 16.18-2.8-5.1-5.56-10.24-8.38-15.32-.7-1.44-2.36-1.88-3.6-2.64-4.37-2.44-8.83-4.7-13.12-7.24 4.69-2.33 9.2-4.99 13.83-7.42 1.14-.65 2.49-1.2 3.03-2.49z"/><path fill="#78A353" stroke="#78A353" d="M1274.69 1363.84c24.32-16.82 48.48-33.87 72.91-50.52-.04 12.14.03 24.28-.05 36.43-.06 6.02.26 12.06-.01 18.07-.68.89-1.63 1.5-2.5 2.16-10.48 7.11-20.8 14.47-31.26 21.62-57.98 40.36-116.04 80.61-174.04 120.95-1.86 1.3-3.66 2.71-5.75 3.64.71-18.24.1-36.52.3-54.77 46.75-32.6 93.6-65.05 140.4-97.59z"/><path fill="#30A0C8" stroke="#30A0C8" d="M1546.86 1326.47c.82-3.73 6.59-3.75 7.62-.13.52 4.78-.08 9.6.27 14.42 4.8.22 9.7-.45 14.48.3 3.56 1.1 3.41 6.63-.15 7.61-4.81.47-9.66-.25-14.46.32-.06 4.68.24 9.4-.08 14.09-.75 3.65-6.37 3.97-7.61.5-.56-4.88 0-9.83-.27-14.73-4.87-.26-9.78.26-14.63-.22-3.6-1.14-3.3-6.89.37-7.66 4.73-.62 9.53.12 14.3-.33.18-4.73-.25-9.47.16-14.17z"/><path fill="#DFB346" stroke="#DFB346" d="M1441.71 1350.67c5.03-4.7 8.33-11 10.13-17.6.04 2.28.22 4.6 0 6.9-1.83 4.39-3.36 9.03-6.55 12.68-9.48 11.47-24.68 16.87-39.25 17.09-13.43.33-27.3-3.73-37.44-12.76-5.73-5.05-10.2-12.13-9.98-20 2.68 4.14 4.55 8.87 8.19 12.35 9.96 10.49 24.84 15.12 39.05 14.9 13.02-.14 26.26-4.56 35.85-13.56z"/><path fill="#0982AF" stroke="#0982AF" d="M1347.56 1349.75c3.44-1.04 6.88-2.09 10.33-3.16.03 46.86-.04 93.73.04 140.6-6.82-4.53-14.7-7.19-22.74-8.42 4.08-2.85 8.16-5.71 12.3-8.48.23-18.32.1-36.67.12-55-11.13-8.1-22.64-15.68-33.82-23.7 10.46-7.14 20.77-14.5 31.25-21.61.87-.67 1.83-1.27 2.5-2.16.27-6.01-.05-12.05.02-18.07z"/><path fill="#DFB346" stroke="#DFB346" d="M1359.38 1356.06c4.1 4.27 8.35 8.5 13.6 11.39 19.75 11.31 45.71 11.11 65.15-.8 4.4-2.47 7.77-6.25 11.6-9.45-2.05 6.31-7.01 11.24-12.18 15.17-13.44 9.44-31.06 11.91-46.9 8.2-13.2-3.12-26.43-11.27-31.27-24.5z"/><path fill="#87B85C" stroke="#87B85C" d="M995.07 1364.81l.14.11c46.3 32.25 92.67 64.41 139.07 96.5-.2 18.25.42 36.53-.29 54.77-12.61-8.46-24.81-17.53-37.6-25.71-11.54-8.68-23.64-16.6-35.43-24.9-10.68-7.44-21.4-14.81-32.05-22.29-11.2-7.76-22.47-15.47-33.6-23.33-.5-18.34.01-36.77-.24-55.15z"/><path fill="#FFDA82" stroke="#FFDA82" d="M832.45 1364.9c2.6 4.58 4.95 9.3 7.64 13.84 4.4 2.77 9.14 5 13.67 7.59l-.02.4c-4.5 2.48-9.08 4.82-13.5 7.44-2.75 4.44-5.09 9.16-7.62 13.74-3.19-4.26-4.96-9.45-8.04-13.78a281.23 281.23 0 00-13.83-7.57c4.4-2.44 8.85-4.8 13.25-7.26.88-.38 1.25-1.3 1.72-2.05 2.22-4.13 4.48-8.24 6.73-12.34z"/><path fill="#DFB346" stroke="#DFB346" d="M1416.43 1387.2c12.9-2.17 25.35-8.41 33.73-18.63-1.32 4.99-4.73 9.13-8.34 12.7-10.29 9.6-24.76 13.69-38.61 13.4-13.18-.38-26.68-4.88-36.18-14.28-3.03-3.25-5.97-6.86-7.17-11.22 3.51 3.18 6.68 6.8 10.8 9.26 13.34 8.78 30.15 11.36 45.77 8.78z"/><path fill="#87B85C" stroke="#87B85C" d="M1103.38 1372.05c5-.68 10.96.75 13.63 5.41 2 3.26.79 7.64-1.98 10.06-5 4.44-13.1 4.86-18.63 1.16-2.87-1.9-4.74-5.71-3.5-9.07 1.43-4.44 6.07-7.02 10.48-7.56z"/><path fill="#DFB346" stroke="#DFB346" d="M1420.76 1398.74a55.35 55.35 0 0029.47-17.62c-3.61 10.63-13.4 18-23.55 21.99-16.44 6.26-35.86 5.28-51.12-3.71-6.82-4.1-13.12-10.01-15.69-17.72 3.53 3.18 6.72 6.8 10.86 9.24 14.6 9.5 33.23 11.85 50.03 7.82z"/><path fill="#9ED76C" stroke="#9ED76C" d="M1139.74 1512.55c58-40.34 116.06-80.6 174.05-120.95 11.18 8.01 22.7 15.59 33.82 23.7-71.28 49.27-142.35 98.85-213.54 148.25-10.6-7.83-21.61-15.05-32.37-22.64-35.46-24.72-71.1-49.19-106.48-73.98 11.09-8.07 22.55-15.63 33.69-23.64 10.64 7.48 21.37 14.85 32.05 22.29 11.8 8.31 23.89 16.22 35.43 24.9 12.79 8.18 24.99 17.25 37.6 25.72 2.09-.94 3.9-2.34 5.75-3.65z"/><path fill="#DFB346" stroke="#DFB346" d="M1420.71 1411.21a56.57 56.57 0 0029.47-17.54c-1.5 5.13-5.08 9.36-8.87 13-11.79 10.5-28.4 14.22-43.84 12.44-11.67-1.38-23.32-6.16-31.4-14.9-2.68-2.93-5.08-6.23-6.22-10.06 3.62 3.12 6.76 6.82 10.93 9.27 14.59 9.44 33.16 11.8 49.93 7.8z"/><path fill="#DFB346" stroke="#DFB346" d="M1439.71 1415.38c4-2.46 7.13-6 10.5-9.21-3.92 11.2-14.52 18.6-25.3 22.49-15.12 5.2-32.43 4.38-46.74-2.87-7.82-4.22-15.34-10.49-18.3-19.13 3.72 3.27 7.08 7.01 11.42 9.54 20.42 12.73 48.34 12.5 68.42-.82z"/><path fill="#78A353" stroke="#78A353" d="M1134.07 1563.55c71.19-49.4 142.26-98.98 213.54-148.25-.02 18.32.11 36.67-.12 55-4.14 2.76-8.22 5.62-12.3 8.47a79.62 79.62 0 00-15.76-.04c-12.25 1.5-24.49 6.82-32.49 16.46a30.45 30.45 0 00-7.04 21.91 50014.3 50014.3 0 01-145.28 100.95c-.9-18.14.2-36.35-.55-54.5z"/><path fill="#DFB346" stroke="#DFB346" d="M1442.88 1425.52c2.66-2.06 4.8-4.67 7.36-6.85-4.1 11.1-14.55 18.6-25.37 22.45-16.32 5.59-35.33 4.27-50.14-4.85-6.37-4.12-12.3-9.74-14.86-17.03 2.67 1.9 4.68 4.58 7.34 6.53 11.15 8.73 25.6 12.53 39.62 12.2 12.87-.44 25.9-4.36 36.05-12.45z"/><path fill="#FFDA82" stroke="#FFDA82" d="M898.65 1431.26c2.12-2.71 2.98-6.24 5.3-8.78 1.62 2.9 3 5.96 4.87 8.72 2.8 1.81 5.8 3.29 8.75 4.86-2.7 2.18-6.19 3.17-8.88 5.34-1.81 2.79-3.2 5.83-4.84 8.73-1.92-2.82-3.2-6-5.06-8.83-2.85-1.95-6.09-3.27-8.95-5.2 2.96-1.57 5.98-3.04 8.81-4.84zM1525.14 1431.02c1.82-2.89 3.31-5.98 4.97-8.96 1.72 2.97 3.1 6.16 5.05 9 2.79 1.93 5.94 3.28 8.9 4.97-2.82 1.88-6 3.13-8.82 5-1.97 2.88-3.39 6.1-5.12 9.13-1.72-3.03-3.18-6.2-5.1-9.1-2.85-1.89-6.04-3.17-8.9-5.05 3-1.66 6.2-3.03 9.02-5z"/><path fill="#DFB346" stroke="#DFB346" d="M1359.49 1431.05c2.47 1.97 4.35 4.57 6.89 6.5 11.53 9.4 26.8 13.44 41.54 12.81 12.48-.56 25.02-4.54 34.9-12.34 2.49-1.9 4.47-4.36 6.94-6.28-1.5 5.1-5.2 9.21-9.04 12.74-10.6 9.25-25.12 12.99-38.98 12.34-12.55-.64-25.29-5.06-34.4-13.94a32.4 32.4 0 01-7.85-11.83z"/><path fill="#DFB346" stroke="#DFB346" d="M1359.48 1443.56c3.73 3.35 7.12 7.15 11.47 9.79 20.75 13.05 49.34 12.8 69.57-1.19 3.47-2.17 6.03-5.41 9.23-7.9-1.9 5.97-6.42 10.72-11.26 14.5-10.22 7.75-23.35 10.95-36.03 10.58-12.76-.57-25.77-4.91-35.06-13.93-3.4-3.37-6.27-7.35-7.92-11.85z"/><path fill="#DFB346" stroke="#DFB346" d="M1359.4 1455.6a55.71 55.71 0 0029.23 17.73c16.75 4.18 35.33 1.84 50.02-7.44 4.2-2.42 7.4-6.09 11.09-9.14-2.03 6.34-7 11.26-12.17 15.18-12.53 8.86-28.79 11.57-43.74 8.87-10.1-1.86-20.02-6.25-27.21-13.73-3.13-3.3-5.87-7.1-7.23-11.47z"/><path fill="#87B85C" stroke="#87B85C" d="M995.03 1466.78l.2.15c35.38 24.8 71.01 49.26 106.47 73.98 10.75 7.59 21.78 14.8 32.36 22.64.76 18.16-.35 36.36.56 54.5l.04.6c-25.58-17.56-50.99-35.38-76.51-53.02-20.93-14.62-42.04-29-62.88-43.73-.42-18.35.06-36.76-.24-55.12z"/><path fill="#DFB346" stroke="#DFB346" d="M1359.42 1468.14c4.54 4.91 9.6 9.42 15.61 12.49 20.43 10.57 46.84 9.55 65.78-3.8 3.33-2.08 5.77-5.23 8.92-7.55-1.68 5.26-5.56 9.5-9.6 13.1-11.68 9.61-27.59 13.17-42.44 11.44-11.81-1.37-23.58-6.2-31.77-15.03a31.42 31.42 0 01-6.5-10.65z"/><path fill="#DFB346" stroke="#DFB346" d="M1420.95 1498.27a55.39 55.39 0 0029.26-17.58c-3.87 11.18-14.37 18.78-25.19 22.6-16.44 5.72-35.57 4.34-50.46-4.91-6.3-4.14-12.4-9.72-14.62-17.14 3.44 3.19 6.64 6.71 10.69 9.19 14.65 9.6 33.44 11.93 50.32 7.84z"/><path fill="#DFB346" stroke="#DFB346" d="M1396.17 1512.08c19.62 2.64 40.94-3.62 54.1-18.88-3.18 9.05-10.87 15.7-19.18 19.98-13.23 6.6-28.8 7.4-43 3.8 2.35 2.58 4.79 5.1 7.32 7.52a69.28 69.28 0 01-21.06-6.78c-.36.72-.7 1.47-1 2.24.3-2.98.6-5.97.61-8.96 4.45 1.67 8.53 4.23 13.15 5.48-2.34-2.99-5.16-5.55-7.61-8.43 5.52 1.5 10.94 3.46 16.67 4.03z"/><path fill="#C9A03F" stroke="#C9A03F" d="M1369.61 1498.74c3.07 3.33 6.05 6.81 9.89 9.31 2.45 2.88 5.26 5.44 7.6 8.43-4.61-1.25-8.69-3.81-13.14-5.48-1.07-4.2-1.9-8.6-4.35-12.26z"/><path fill="#DFB446" stroke="#DFB446" d="M1438.9 1515.49c4.36-2.59 7.67-6.45 11.38-9.83-2.06 5.95-6.24 10.95-11.1 14.84-10.2 8-23.37 11.27-36.17 11.16 1.57 1.86 3.15 3.74 4.67 5.68-11.62.96-23.3-2.01-33.6-7.33-.03 1.78 0 3.59.04 5.4 11.72 7.5 26.39 9.99 40.04 7.8a46.18 46.18 0 00-6.06-5.88 59.93 59.93 0 0030.64-9.3c4.41-2.6 7.8-6.48 11.57-9.85a32.02 32.02 0 01-4.94 8.62c-7.49 9.43-19.12 14.36-30.67 16.64a23.52 23.52 0 004.95 4.95 59.16 59.16 0 0019.1-7.9c4.39-2.6 7.79-6.45 11.53-9.84-4.26 11.21-14.84 19.21-26.13 22.5a34.84 34.84 0 00-4.57-4.5c-8.8 1.32-17.8 2.02-26.58.33a67.8 67.8 0 01-18.83-6.45c-.13 1.82-.23 3.67-.3 5.52-.07-7.63-.16-15.26.05-22.88-1.88 5.04-3.8 10.23-7.58 14.22-10.13 11.35-25.85 16.28-40.75 16-14.44-.3-29.52-5.6-38.96-16.95-3.5-3.85-5.11-8.83-6.68-13.66-.23-1.28-.03-2.6.06-3.85 2.27 3.95 3.89 8.31 6.84 11.85 4.13 5.13 9.63 9.07 15.57 11.86 15.1 6.86 33.15 7.07 48.3.25 10.32-4.52 19.38-13.06 22.38-24.18.85 1.5 1.87 3 3.5 3.77 7.84 4.42 16.84 6.62 25.8 7a87.6 87.6 0 01-5.74-6.45c6.52-.15 13.12.46 19.57-.87a60.65 60.65 0 0022.68-8.67z"/><path fill="#C9A03E" stroke="#C9A03E" d="M1374.35 1517.72a69.24 69.24 0 0021.06 6.78l1.25.53a87.39 87.39 0 005.74 6.45c-8.96-.38-17.96-2.58-25.8-7-1.63-.78-2.65-2.28-3.5-3.78l.24-.74c.32-.77.65-1.52 1.01-2.24z"/><path fill="#FECB4E" stroke="#FECB4E" d="M1279.95 1524.78c1.57 4.83 3.2 9.81 6.69 13.66 9.43 11.35 24.51 16.65 38.95 16.95 14.9.28 30.63-4.65 40.76-16 3.78-4 5.7-9.18 7.57-14.23-.2 7.63-.12 15.26-.05 22.9.02 5.65-.3 11.3.01 16.97.06 13.38.01 26.77.03 40.16-.02 6 .41 12.27-2.06 17.92-4.74 11.52-15.84 19.26-27.47 22.77-16.36 4.97-35.15 2.87-49.37-6.91-8.24-5.73-14.77-14.83-15.11-25.12.03-29.7-.1-59.39.05-89.07m1.75 17.56c1.17 3.71 3.5 6.92 6.05 9.84 7.52 8.32 18.3 13.1 29.26 14.9 14.87 2.39 30.95-.58 43.2-9.6 4.98-4.05 9.85-8.88 11.8-15.17-4.74 4.65-9.69 9.18-15.7 12.14-19.86 10.09-45.16 9.22-63.92-2.97-4.04-2.49-7.17-6.05-10.7-9.14m.02 12.5c1.4 4.03 3.91 7.59 6.83 10.68 7.33 7.58 17.39 12.04 27.67 13.85 14.16 2.48 29.38.03 41.58-7.75 6.1-4.14 11.8-9.66 14.2-16.8-3.68 3.25-7 6.95-11.24 9.5-20 12.6-47.2 12.66-67.32.29-4.44-2.6-7.9-6.43-11.72-9.76m80.43 21c-19.91 13.38-47.67 13.9-68.18 1.5-4.44-2.5-7.9-6.25-11.76-9.47 2.15 6.93 7.84 12.14 13.67 16.14 15.05 9.65 34.64 11.13 51.38 5.25 10.55-3.8 20.68-11.18 24.78-21.96-3.34 2.78-6.18 6.18-9.88 8.53m-80.41 3.47c.94 3.96 3.48 7.28 6.1 10.32 7.85 8.7 19.34 13.37 30.76 15 16.11 2.06 33.73-1.83 45.68-13.3 3.26-3.4 6.55-7.24 7.68-11.9-13.08 15.36-34.64 21.36-54.21 18.64-13.69-1.77-27.07-8.05-36.01-18.76m-.05 12.49c1.27 4.48 4.2 8.29 7.37 11.62 8.67 8.5 20.7 13.06 32.7 14 14.95 1.2 30.87-2.84 42.05-13.18 3.45-3.5 6.96-7.47 8.11-12.37-13.6 15.99-36.34 21.84-56.55 18.29-12.86-2.14-25.13-8.42-33.68-18.36m.02 12.5c1.15 4.33 4.06 7.92 7.01 11.2 8.43 8.62 20.36 13.1 32.2 14.3 14.47 1.28 29.85-2.16 41.17-11.6 4.3-3.71 8.29-8.25 9.86-13.81-3.48 3.63-7.13 7.16-11.4 9.86-14.44 9.07-32.59 11.44-49.1 7.56-11.4-2.61-22.06-8.62-29.74-17.5m0 12.48c2.65 8.24 9.55 14.4 16.83 18.64 14.66 8.06 32.76 9.22 48.48 3.68 10.64-3.84 21.24-11.13 24.96-22.29a55.66 55.66 0 01-29.17 17.3c-16.98 4.21-35.82 1.6-50.53-8.03-4.05-2.48-7.16-6.07-10.57-9.3z"/><path fill="#C9A03E" stroke="#C9A03E" d="M1374.08 1530.02c10.3 5.3 21.98 8.29 33.6 7.32h.42a46.3 46.3 0 016.06 5.88c-13.65 2.18-28.32-.32-40.04-7.81-.04-1.81-.07-3.62-.04-5.4z"/><path fill="#DFB346" stroke="#DFB346" d="M1281.7 1542.34c3.52 3.09 6.65 6.65 10.69 9.14 18.76 12.19 44.05 13.06 63.92 2.97 6.02-2.96 10.96-7.49 15.7-12.14-1.95 6.29-6.82 11.12-11.8 15.18-12.26 9.01-28.33 11.97-43.2 9.58-10.95-1.79-21.74-6.57-29.26-14.89-2.54-2.92-4.88-6.13-6.05-9.84z"/><path fill="#C9A03F" stroke="#C9A03F" d="M1374.17 1542.53c5.94 3 12.25 5.3 18.83 6.45 8.78 1.69 17.79 1 26.58-.32 1.6 1.38 3.22 2.8 4.57 4.49l.34.39c-13.1 3.85-27.45 4.16-40.35-.66-3.57-1.3-6.9-3.13-10.27-4.83.07-1.86.17-3.7.3-5.52z"/><path fill="#E5B546" stroke="#E5B546" d="M1429.12 1557.78c8.03-2.76 14.59-8.34 20.67-14.07-2.62 8.02-9.42 13.99-16.54 18.1-1.4-1.27-2.8-2.49-4.21-3.68-13.35 4.7-28.06 5.78-41.76 1.95-4.64-1.16-8.92-3.27-13.24-5.24-.06 1.84-.02 3.71.08 5.6 17.53 10.74 40.8 11.37 58.85 1.53a21.5 21.5 0 012.44 3.42c-18.28 11.56-43.41 11.5-61.53-.36-.31-5.66.01-11.32-.01-16.98 3.37 1.7 6.7 3.54 10.27 4.83 12.9 4.82 27.24 4.51 40.35.66 1.36 1.58 3 2.9 4.63 4.24z"/><path fill="#DFB346" stroke="#DFB346" d="M1281.71 1554.85c3.83 3.33 7.28 7.16 11.72 9.76 20.11 12.37 47.32 12.3 67.32-.3 4.25-2.54 7.56-6.24 11.24-9.49-2.4 7.14-8.1 12.66-14.2 16.8-12.2 7.78-27.43 10.23-41.58 7.75-10.28-1.81-20.34-6.27-27.67-13.85-2.91-3.09-5.43-6.65-6.83-10.67z"/><path fill="#C9A03E" stroke="#C9A03E" d="M1374.04 1554.84c4.32 1.96 8.6 4.08 13.24 5.24 13.7 3.83 28.41 2.75 41.76-1.95 1.4 1.19 2.8 2.41 4.21 3.67l-.28.17c-18.05 9.84-41.32 9.21-58.85-1.54-.1-1.88-.14-3.75-.08-5.6z"/><path fill="#DFB347" stroke="#DFB347" d="M1362.14 1575.84c3.71-2.35 6.55-5.75 9.9-8.53-4.1 10.78-14.24 18.16-24.79 21.96-16.74 5.88-36.33 4.4-51.38-5.25-5.82-4-11.52-9.21-13.67-16.14 3.86 3.22 7.32 6.98 11.76 9.48 20.5 12.4 48.27 11.87 68.18-1.52z"/><path fill="#DFB346" stroke="#DFB346" d="M1281.74 1579.3c8.94 10.72 22.32 17 36 18.77 19.58 2.72 41.14-3.28 54.22-18.64-1.13 4.67-4.43 8.5-7.68 11.9-11.95 11.48-29.57 15.36-45.68 13.3-11.42-1.63-22.9-6.3-30.77-15-2.61-3.04-5.15-6.36-6.1-10.32z"/><path fill="#DFB347" stroke="#DFB347" d="M1281.7 1591.8c8.54 9.94 20.8 16.22 33.67 18.36 20.21 3.55 42.95-2.3 56.55-18.3-1.15 4.91-4.66 8.88-8.1 12.38-11.19 10.34-27.1 14.39-42.06 13.17-12-.93-24.03-5.49-32.7-14-3.17-3.32-6.1-7.13-7.37-11.61z"/><path fill="#DFB346" stroke="#DFB346" d="M1281.71 1604.3c7.68 8.89 18.35 14.9 29.75 17.51 16.5 3.88 34.65 1.5 49.09-7.56 4.27-2.7 7.92-6.23 11.4-9.86-1.57 5.56-5.57 10.1-9.86 13.81-11.32 9.44-26.7 12.88-41.17 11.6-11.84-1.2-23.77-5.68-32.2-14.3-2.95-3.28-5.86-6.87-7-11.2z"/><path fill="#DFB346" stroke="#DFB346" d="M1281.71 1616.8c3.4 3.22 6.52 6.8 10.57 9.3 14.71 9.62 33.56 12.23 50.53 8.02a55.66 55.66 0 0029.18-17.3c-3.73 11.16-14.33 18.45-24.97 22.3-15.72 5.53-33.82 4.37-48.47-3.69-7.3-4.25-14.19-10.4-16.84-18.64z"/></svg>